<?xml version="1.0" encoding="UTF-8" standalone="no"?>
<!-- Created with Inkscape (http://www.inkscape.org/) -->

<svg
   xmlns:dc="http://purl.org/dc/elements/1.1/"
   xmlns:cc="http://creativecommons.org/ns#"
   xmlns:rdf="http://www.w3.org/1999/02/22-rdf-syntax-ns#"
   xmlns:svg="http://www.w3.org/2000/svg"
   xmlns="http://www.w3.org/2000/svg"
   xmlns:xlink="http://www.w3.org/1999/xlink"
   xmlns:sodipodi="http://sodipodi.sourceforge.net/DTD/sodipodi-0.dtd"
   xmlns:inkscape="http://www.inkscape.org/namespaces/inkscape"
   width="1024"
   height="1024"
   viewBox="0 0 1024 1024"
   id="svg2"
   version="1.1"
   inkscape:version="0.92.3 (2405546, 2018-03-11)"
   sodipodi:docname="turtle-logo.svg"
   inkscape:export-filename="/home/sunjay/Documents/projects/turtle/docs/assets/images/turtle-logo-256.png"
   inkscape:export-xdpi="24"
   inkscape:export-ydpi="24">
  <defs
     id="defs4">
    <inkscape:path-effect
       effect="spiro"
       id="path-effect4327"
       is_visible="true" />
    <inkscape:path-effect
       effect="spiro"
       id="path-effect4323"
       is_visible="true" />
    <inkscape:path-effect
       effect="spiro"
       id="path-effect4319"
       is_visible="true" />
    <inkscape:path-effect
       effect="spiro"
       id="path-effect4315"
       is_visible="true" />
    <inkscape:path-effect
       effect="spiro"
       id="path-effect4309"
       is_visible="true" />
    <inkscape:path-effect
       effect="spiro"
       id="path-effect4305"
       is_visible="true" />
    <inkscape:path-effect
       effect="spiro"
       id="path-effect4291"
       is_visible="true" />
    <inkscape:path-effect
       effect="spiro"
       id="path-effect4269"
       is_visible="true" />
    <inkscape:path-effect
       effect="spiro"
       id="path-effect4192"
       is_visible="true" />
    <inkscape:path-effect
       effect="spiro"
       id="path-effect4187"
       is_visible="true" />
    <inkscape:path-effect
       effect="spiro"
       id="path-effect4183"
       is_visible="true" />
    <inkscape:path-effect
       effect="spiro"
       id="path-effect4322"
       is_visible="true" />
    <inkscape:path-effect
       effect="spiro"
       id="path-effect4318"
       is_visible="true" />
    <inkscape:path-effect
       effect="spiro"
       id="path-effect4314"
       is_visible="true" />
    <inkscape:path-effect
       effect="spiro"
       id="path-effect4310"
       is_visible="true" />
    <inkscape:path-effect
       effect="spiro"
       id="path-effect4306"
       is_visible="true" />
    <inkscape:path-effect
       effect="spiro"
       id="path-effect4302"
       is_visible="true" />
    <inkscape:path-effect
       effect="spiro"
       id="path-effect4298"
       is_visible="true" />
    <inkscape:path-effect
       effect="spiro"
       id="path-effect4294"
       is_visible="true" />
    <inkscape:path-effect
       effect="spiro"
       id="path-effect4290"
       is_visible="true" />
    <inkscape:path-effect
       effect="spiro"
       id="path-effect4274"
       is_visible="true" />
    <inkscape:path-effect
       effect="spiro"
       id="path-effect4225"
       is_visible="true" />
    <clipPath
       clipPathUnits="userSpaceOnUse"
       id="clipPath18">
      <path
         d="M 0,800 H 1200 V 0 H 0 Z"
         id="path16" />
    </clipPath>
    <inkscape:path-effect
       effect="spiro"
       id="path-effect4269-9"
       is_visible="true" />
  </defs>
  <sodipodi:namedview
     id="base"
     pagecolor="#ffffff"
     bordercolor="#666666"
     borderopacity="1.0"
     inkscape:pageopacity="0.0"
     inkscape:pageshadow="2"
     inkscape:zoom="0.99999999"
     inkscape:cx="187.8938"
     inkscape:cy="480.49999"
     inkscape:document-units="px"
     inkscape:current-layer="layer4"
     showgrid="false"
     units="px"
     inkscape:window-width="3840"
     inkscape:window-height="2061"
     inkscape:window-x="0"
     inkscape:window-y="0"
     inkscape:window-maximized="1" />
  <metadata
     id="metadata7">
    <rdf:RDF>
      <cc:Work
         rdf:about="">
        <dc:format>image/svg+xml</dc:format>
        <dc:type
           rdf:resource="http://purl.org/dc/dcmitype/StillImage" />
        <dc:title />
      </cc:Work>
    </rdf:RDF>
  </metadata>
  <g
     inkscape:label="RefrenceImage"
     inkscape:groupmode="layer"
     id="layer1"
     transform="translate(0,-28.362161)"
     style="display:none;opacity:1"
     sodipodi:insensitive="true">
    <image
       sodipodi:absref="/home/sunjay/Downloads/1386630.png"
       y="390.04074"
       x="34.285717"
       id="image4195"
       xlink:href="file:///home/sunjay/Downloads/1386630.png"
       preserveAspectRatio="none"
       height="638.92859"
       width="957.19635" />
  </g>
  <g
     inkscape:groupmode="layer"
     id="layer3"
     inkscape:label="Trace"
     style="display:inline;opacity:1">
    <path
       style="fill:#8bc34a;fill-rule:evenodd;stroke:#4e7226;stroke-width:5;stroke-linecap:round;stroke-linejoin:round;stroke-opacity:1;fill-opacity:1;stroke-miterlimit:4;stroke-dasharray:none"
       d="m 254,935.5 13,4 c 6.32325,0.49772 12.65943,0.83121 19,1 6.49847,0.173 13.00153,0.173 19.5,0 l 15,-2.5 15.5,-4.5 14,-7 9.5,-9.5 3,-11.5 c 0.92456,-15.98297 1.4248,-31.99049 1.5,-48 0.0133,-2.83331 0.0133,-5.66669 0,-8.5 l -89,-20.5 -13,-1 z"
       id="path4303"
       inkscape:path-effect="#path-effect4305"
       inkscape:original-d="m 254,935.5 13,4 19,1 19.5,0 15,-2.5 15.5,-4.5 14,-7 9.5,-9.5 3,-11.5 1.5,-48 0,-8.5 -89,-20.5 -13,-1 z"
       inkscape:connector-curvature="0" />
    <path
       style="fill:#8bc34a;fill-rule:evenodd;stroke:#4e7226;stroke-width:5;stroke-linecap:round;stroke-linejoin:round;stroke-opacity:1;fill-opacity:1;stroke-miterlimit:4;stroke-dasharray:none"
       d="m 688.54523,732.31845 6.36396,8.13173 c 2.88449,4.32379 5.71323,8.68476 8.48528,13.08148 3.3849,5.36875 6.68528,10.7908 9.8995,16.26345 2.56905,5.75915 5.10291,11.534 7.60139,17.32412 2.51067,5.81836 4.9856,11.65214 7.42463,17.50089 3.10687,8.34899 5.99554,16.77919 8.66205,25.27907 2.09831,6.68865 4.05883,13.41962 6.01041,20.15254 1.65623,5.71396 3.30615,11.42974 4.94975,17.14734 l 1.94454,9.01561 0.35356,7.77818 -3.53554,7.60139 -6.54074,8.13173 -12.72792,10.07627 -14.49569,7.6014 -19.97576,7.42462 -13.25826,3.88909 -14.14213,2.65165 -9.54594,0.88388 c -5.50507,-22.25322 -11.1621,-44.46885 -16.97057,-66.64481 -6.52658,-24.91764 -13.24436,-49.7852 -20.15254,-74.59976 4.3899,-2.90245 8.75068,-5.84892 13.08148,-8.83884 9.2738,-6.40249 18.41007,-13.00418 27.40038,-19.79899 l 17.85445,-15.55635 z"
       id="path4307"
       inkscape:path-effect="#path-effect4309"
       inkscape:original-d="m 688.54523,732.31845 6.36396,8.13173 8.48528,13.08148 9.8995,16.26345 7.60139,17.32412 7.42463,17.50089 8.66205,25.27907 6.01041,20.15254 4.94975,17.14734 1.94454,9.01561 0.35356,7.77818 -3.53554,7.60139 -6.54074,8.13173 -12.72792,10.07627 -14.49569,7.6014 -19.97576,7.42462 -13.25826,3.88909 -14.14213,2.65165 -9.54594,0.88388 -16.97057,-66.64481 -20.15254,-74.59976 13.08148,-8.83884 27.40038,-19.79899 17.85445,-15.55635 z"
       inkscape:connector-curvature="0" />
    <path
       style="fill:#aed581;fill-opacity:1;fill-rule:evenodd;stroke:#4e7226;stroke-width:5;stroke-linecap:butt;stroke-linejoin:round;stroke-miterlimit:4;stroke-dasharray:none;stroke-opacity:1"
       d="m 653.06362,693.93265 6.31346,4.29316 6.18718,7.44987 5.55584,2.39911 5.55584,1.26269 6.06091,0.88388 23.35978,-4.16688 -0.88388,3.91435 -3.53554,5.93464 c -3.46793,5.00296 -7.04672,9.92906 -10.73287,14.77348 -3.68218,4.8392 -7.47149,9.59689 -11.36421,14.26841 l -16.16244,14.14213 c -4.03411,3.52984 -8.40564,6.64367 -12.87945,9.59645 -7.23982,4.77838 -14.23855,9.92203 -20.96066,15.40483 l -114.14724,53.41182 -22.34963,6.18718 c -10.77622,2.04353 -21.59664,3.85396 -32.45115,5.42957 -7.177,1.0418 -14.37085,1.98117 -21.59201,2.65165 -5.50351,0.511 -11.0207,0.86561 -16.54125,1.13642 -6.51974,0.31983 -13.04502,0.52285 -19.5717,0.63135 -7.49128,0.12453 -14.98462,0.12453 -22.4759,0 -5.60403,-0.28004 -11.20311,-0.65892 -16.79378,-1.13642 -11.70639,-0.99984 -23.37584,-2.43219 -34.97653,-4.29315 l -30.43085,-6.18719 -21.71828,-6.18718 -95.20688,-37.24938 -33.84011,-50.00255 1.13642,-5.93464 21.46575,15.40482 51.51778,21.59201 57.45242,10.73287 125.51146,8.20749 124.12249,-15.15229 76.77159,-33.71384 z"
       id="path4185"
       inkscape:path-effect="#path-effect4187"
       inkscape:original-d="m 653.06362,693.93265 6.31346,4.29316 6.18718,7.44987 5.55584,2.39911 5.55584,1.26269 6.06091,0.88388 23.35978,-4.16688 -0.88388,3.91435 -3.53554,5.93464 -10.73287,14.77348 -11.36421,14.26841 -16.16244,14.14213 c 0,0 -8.20749,6.69226 -12.87945,9.59645 -4.67195,2.90419 -20.96066,15.40483 -20.96066,15.40483 l -114.14724,53.41182 -22.34963,6.18718 -32.45115,5.42957 -21.59201,2.65165 -16.54125,1.13642 -19.5717,0.63135 -22.4759,0 -16.79378,-1.13642 -34.97653,-4.29315 -30.43085,-6.18719 -21.71828,-6.18718 -95.20688,-37.24938 -33.84011,-50.00255 1.13642,-5.93464 21.46575,15.40482 51.51778,21.59201 57.45242,10.73287 125.51146,8.20749 124.12249,-15.15229 76.77159,-33.71384 z"
       inkscape:connector-curvature="0"
       sodipodi:nodetypes="ccccccccccccscccccccccccccccccccccc" />
    <path
       style="fill:#8bc34a;fill-opacity:1;fill-rule:evenodd;stroke:#4e7226;stroke-width:5;stroke-linecap:round;stroke-linejoin:round;stroke-miterlimit:4;stroke-dasharray:none;stroke-opacity:1"
       d="m 517,836 1.75,11 c -0.0156,4.75087 -0.0989,9.50151 -0.25,14.25 -0.16714,5.25351 -0.41718,10.50438 -0.75,15.75 -0.76319,6.35428 -1.68021,12.69009 -2.75,19 -1.67473,9.878 -3.723,19.68822 -5.75,29.5 -1.34244,6.49813 -2.67577,12.99814 -4,19.5 l -0.46415,4.40023 0.26517,3.8007 0.97227,3.71231 3.53554,4.33103 4.77297,4.15426 c 2.55195,1.32055 5.14647,2.55884 7.77817,3.71231 1.69393,0.74245 3.40326,1.44976 5.12652,2.12132 2.38223,0.60633 4.7688,1.1956 7.15946,1.76776 2.41186,0.57723 4.8279,1.13705 7.24785,1.67938 2.96302,0.42936 5.94124,0.75373 8.92722,0.97227 3.03032,0.22179 6.06747,0.33457 9.104,0.44195 3.62358,0.12814 7.24744,0.24866 10.87177,0.35355 3.44635,0.0997 6.89365,0.18534 10.34143,0.17678 4.57114,-0.0113 9.14186,-0.18828 13.7002,-0.53033 3.60403,-0.39413 7.19959,-0.86568 10.78337,-1.41422 4.14223,-0.63402 8.26871,-1.37089 12.37437,-2.20971 3.79227,-0.85586 7.56483,-1.799 11.31371,-2.82842 3.11066,-0.85417 6.205,-1.76774 9.28078,-2.74004 l 9.63433,-4.77297 7.86656,-5.21492 4.94975,-4.06586 3.71231,-5.12652 1.41421,-4.5962 -0.0884,-11.57887 c -0.35533,-4.24018 -0.67943,-8.48297 -0.97227,-12.72792 -0.42523,-6.16407 -0.78487,-12.33627 -1.5026,-18.47317 -0.41094,-3.51374 -0.93891,-7.01259 -1.41421,-10.51821 -1.01894,-7.51534 -1.79653,-15.06667 -3.0936,-22.53903 -0.61669,-3.55272 -1.35025,-7.08416 -2.12132,-10.6066 -1.23023,-5.62 -2.55631,-11.21901 -3.97747,-16.79379 l -3.88909,-12.63953 c -1.43129,-3.85763 -2.93424,-7.68867 -4.5078,-11.49049 -1.66015,-4.01102 -3.3989,-7.98952 -5.21492,-11.93242 -1.61128,-2.46175 -3.20234,-4.93674 -4.77297,-7.42463 -2.43589,-3.85848 -4.82263,-7.74798 -7.15945,-11.66726 l -39.62222,-40.23223 c -10.45489,4.52626 -20.82805,9.24133 -31.1127,14.14213 -18.75131,8.93529 -37.20834,18.48813 -55.3311,28.63783 z"
       id="path4289"
       inkscape:path-effect="#path-effect4291"
       inkscape:original-d="m 517,836 1.75,11 -0.25,14.25 -0.75,15.75 -2.75,19 -5.75,29.5 -4,19.5 -0.46415,4.40023 0.26517,3.8007 0.97227,3.71231 3.53554,4.33103 4.77297,4.15426 7.77817,3.71231 5.12652,2.12132 7.15946,1.76776 7.24785,1.67938 8.92722,0.97227 9.104,0.44195 10.87177,0.35355 10.34143,0.17678 13.7002,-0.53033 10.78337,-1.41422 12.37437,-2.20971 11.31371,-2.82842 9.28078,-2.74004 9.63433,-4.77297 7.86656,-5.21492 4.94975,-4.06586 3.71231,-5.12652 1.41421,-4.5962 -0.0884,-11.57887 -0.97227,-12.72792 -1.5026,-18.47317 -1.41421,-10.51821 -3.0936,-22.53903 -2.12132,-10.6066 -3.97747,-16.79379 -3.88909,-12.63953 -4.5078,-11.49049 -5.21492,-11.93242 -4.77297,-7.42463 -7.15945,-11.66726 -39.62222,-40.23223 -31.1127,14.14213 -55.3311,28.63783 z"
       inkscape:connector-curvature="0"
       sodipodi:nodetypes="cccccccccccccccccccccccccccccccccccccccccccccc" />
    <path
       style="fill:#8bc34a;fill-opacity:1;fill-rule:evenodd;stroke:#4e7226;stroke-width:5;stroke-linecap:butt;stroke-linejoin:round;stroke-miterlimit:4;stroke-dasharray:none;stroke-opacity:1"
       d="m 105.56094,680.2956 -13.889596,-1.2627 -17.930208,-5.05076 -22.728432,-9.59645 -14.394674,-7.82868 -2.020305,0.75761 0.757614,6.566 3.535534,11.36421 3.535534,9.09138 10.101526,12.6269 8.838834,9.59645 14.647212,13.38452 10.606602,7.82868 19.950509,11.11168 18.43529,6.56599 11.36421,2.77792 13.13199,1.81828 4.14162,-7.57615 -9.24289,-13.18249 -15.8594,-7.3236 c -3.27926,-5.13733 -6.56226,-10.27227 -9.84899,-15.40483 -2.10296,-3.28398 -4.20744,-6.56697 -6.31345,-9.84899 l -3.53553,-7.07106 z"
       id="path4181"
       inkscape:path-effect="#path-effect4183"
       inkscape:original-d="m 105.56094,680.2956 -13.889596,-1.2627 -17.930208,-5.05076 -22.728432,-9.59645 -14.394674,-7.82868 -2.020305,0.75761 0.757614,6.566 3.535534,11.36421 3.535534,9.09138 10.101526,12.6269 8.838834,9.59645 14.647212,13.38452 10.606602,7.82868 19.950509,11.11168 18.43529,6.56599 11.36421,2.77792 13.13199,1.81828 4.14162,-7.57615 -9.24289,-13.18249 -15.8594,-7.3236 -9.84899,-15.40483 -6.31345,-9.84899 -3.53553,-7.07106 z"
       inkscape:connector-curvature="0"
       sodipodi:nodetypes="cccccccccccccccccccccccc" />
    <path
       style="fill:#8bc34a;fill-opacity:1;fill-rule:evenodd;stroke:#4e7226;stroke-width:5;stroke-linecap:butt;stroke-linejoin:round;stroke-miterlimit:4;stroke-dasharray:none;stroke-opacity:1"
       d="m 149.64286,746.5 c -0.76362,5.92472 -1.24055,11.88638 -1.42857,17.85714 v 15.71429 l -5.35715,28.21428 c -1.95029,6.21419 -3.97429,12.40525 -6.07143,18.57143 -4.12354,12.12436 -8.5299,24.15253 -13.21428,36.07143 -4.31862,10.32713 -8.84363,20.56796 -13.57143,30.71429 -3.12601,6.70875 -6.34068,13.37619 -9.64286,20 -2.367367,4.04598 -3.148455,8.99288 -2.142854,13.57143 1.313547,5.98065 5.417284,10.92564 9.642854,15.35714 4.07899,4.27777 8.41391,8.33697 13.21429,11.78571 7.76305,5.57722 16.70944,9.49893 26.07143,11.42857 l 18.57143,5.35715 c 5.91449,1.37043 11.87052,2.56164 17.85714,3.57143 4.98094,0.84016 9.98306,1.55474 15,2.14285 h 16.78571 l 12.5,-1.42857 L 240,971.5 l 8.92857,-5 6.42857,-7.85714 c 1.02893,-3.67016 1.98159,-7.36169 2.85715,-11.07143 1.9524,-8.27226 3.52041,-16.63023 5,-25 1.70019,-9.61765 3.28479,-19.25668 4.64285,-28.92857 1.05126,-7.48693 1.9666,-14.99226 2.85715,-22.5 0.81773,-6.89381 1.61483,-13.79226 2.14285,-20.71429 0.37174,-4.87321 0.60995,-9.75661 0.71429,-14.64286 -0.43659,-5.94223 -0.67486,-11.89903 -0.71429,-17.85714 -0.0347,-5.24009 0.0844,-10.48119 0.35715,-15.71429 l -2.14286,-11.07142 c -9.87354,-1.69054 -19.70004,-3.65584 -29.46429,-5.89286 -9.52821,-2.18294 -18.99715,-4.62462 -28.39285,-7.32143 L 192.67857,769.98214 165,755.33928 150.17857,742.66071 c -0.19195,1.27785 -0.37053,2.55771 -0.53571,3.83929 z"
       id="path4190"
       inkscape:path-effect="#path-effect4192"
       inkscape:original-d="m 149.64286,746.5 -1.42857,17.85714 0,15.71429 -5.35715,28.21428 -6.07143,18.57143 -13.21428,36.07143 L 110,893.64286 l -9.64286,20 c 0,0 -2.85714,7.85714 -2.142854,13.57143 0.714286,5.71428 9.642854,15.35714 9.642854,15.35714 0,0 10.35715,10 13.21429,11.78571 2.85714,1.78572 26.07143,11.42857 26.07143,11.42857 l 18.57143,5.35715 17.85714,3.57143 15,2.14285 16.78571,0 12.5,-1.42857 L 240,971.5 l 8.92857,-5 6.42857,-7.85714 2.85715,-11.07143 5,-25 4.64285,-28.92857 2.85715,-22.5 2.14285,-20.71429 0.71429,-14.64286 -0.71429,-17.85714 0.35715,-15.71429 -2.14286,-11.07142 L 241.60714,785.25 213.21429,777.92857 192.67857,769.98214 165,755.33928 150.17857,742.66071 Z"
       inkscape:connector-curvature="0" />
    <path
       style="fill:#8bc34a;fill-opacity:1;fill-rule:evenodd;stroke:#4e7226;stroke-width:5;stroke-linecap:butt;stroke-linejoin:round;stroke-miterlimit:4;stroke-dasharray:none;stroke-opacity:1"
       d="m 681,604.35714 7.57143,0.44643 3.39286,-0.89286 5.53571,-2.67857 1.16072,-0.98214 4.64285,-5.26786 c 1.10027,-1.93505 2.20146,-3.86957 3.30357,-5.80357 5.68969,-9.98431 11.404,-19.95458 17.14286,-29.91071 l 2.23214,-3.21429 5,-10.625 5.80358,-14.82143 c 1.42922,-4.66795 2.73931,-9.37237 3.92857,-14.10714 1.03269,-4.11142 1.97444,-8.2465 2.76785,-12.41072 0.80773,-4.23939 1.46125,-8.50636 2.14286,-12.76785 0.5193,-3.24673 1.055,-6.49084 1.60714,-9.73215 0.82744,-4.85744 1.69182,-9.70858 2.58929,-14.55357 0.81755,-4.41356 1.66263,-8.82233 2.58929,-13.21428 0.80786,-3.82888 1.67786,-7.64551 2.67857,-11.42857 0.8815,-3.33239 1.86424,-6.638 2.94643,-9.91072 l 5.08928,-12.76786 c 1.17358,-1.94485 2.36412,-3.87947 3.57143,-5.80357 2.03593,-3.24468 4.11957,-6.45942 6.25,-9.64285 l 6.78571,-8.48215 9.19643,-8.39285 8.125,-6.16072 8.125,-5.17857 c 2.46991,-1.19596 4.97104,-2.32743 7.5,-3.39286 3.05665,-1.28775 6.15394,-2.47901 9.28572,-3.57143 l 10.35714,-2.85714 c 3.04166,-0.73507 6.10978,-1.36061 9.19643,-1.875 2.96457,-0.49405 5.9453,-0.88546 8.92857,-1.25 2.884,-0.35241 5.77105,-0.67981 8.66072,-0.98214 l 19.375,0.53571 L 890,364.26786 c 4.93384,1.37371 9.81889,2.92262 14.64286,4.64285 3.57688,1.27552 7.12019,2.6452 10.625,4.10715 l 11.51786,6.25 11.51785,8.03571 c 2.42503,1.87942 4.80682,3.81462 7.14286,5.80357 3.56159,3.0324 7.0168,6.18975 10.35714,9.46429 2.36539,2.86561 4.77651,5.69347 7.23215,8.48214 0.97515,1.1074 1.95732,2.20862 2.94643,3.30357 1.42295,2.11954 2.76357,4.29434 4.01785,6.51786 0.70021,1.2413 1.37342,2.49759 2.05357,3.75 1.35356,2.49243 2.73509,4.97041 4.01786,7.5 1.1744,2.3159 2.26524,4.67355 3.30357,7.05357 1.06753,2.44696 2.07978,4.91804 3.03572,7.41071 0.91978,3.60549 1.96225,7.17967 3.125,10.71429 0.62064,1.88668 1.27555,3.76209 1.96428,5.625 l 1.25,5.26786 c 0.32321,2.32201 0.65059,4.64344 0.98215,6.96428 0.46788,3.27501 0.94407,6.54884 1.42857,9.82143 l -0.0893,16.875 c -0.42337,3.03904 -0.86981,6.07487 -1.33928,9.10714 -0.64157,4.14386 -1.32615,8.28107 -2.05358,12.41072 -1.11647,3.84173 -2.3373,7.65313 -3.66071,11.42857 -1.53056,4.36641 -3.19832,8.68473 -5,12.94643 -1.62193,3.17813 -3.28882,6.33331 -5,9.46428 -1.77764,3.25257 -3.60347,6.47969 -5.53571,9.64286 -1.8937,3.10007 -3.88918,6.13797 -5.98215,9.10714 l -9.375,12.05358 c -3.03351,3.50296 -6.1909,6.89865 -9.46428,10.17857 -2.6912,2.69658 -5.46006,5.31425 -8.21429,7.94643 -2.60204,2.48674 -5.19137,4.98679 -7.76786,7.5 -3.48109,2.98921 -7.02375,5.9067 -10.625,8.75 -2.92028,2.30565 -5.88004,4.56323 -8.92857,6.69642 -2.47542,1.73216 -5.00786,3.38126 -7.5,5.08929 -2.88281,1.97578 -5.71159,4.03037 -8.48214,6.16071 -3.55797,2.16519 -7.12949,4.30811 -10.71429,6.42858 -3.69531,2.18584 -7.40509,4.34804 -11.16071,6.42857 -5.68286,3.14818 -11.4689,6.10832 -17.32143,8.92857 -3.93441,1.89593 -7.89896,3.72872 -11.875,5.53571 -5.09513,2.31558 -10.20964,4.58902 -15.35714,6.78572 -7.35182,3.13739 -14.7735,6.11917 -22.32143,8.75 -4.90607,1.71001 -9.86268,3.2708 -14.82143,4.82143 -7.64069,2.38929 -15.29172,4.75605 -23.03571,6.78571 -6.73962,1.76643 -13.54376,3.27596 -20.35715,4.73214 -5.85075,1.25044 -11.71017,2.46196 -17.58928,3.57143 -3.86107,0.72864 -7.73046,1.41322 -11.60715,2.05357 l -6.78571,0.53572 c -5.38259,0.8321 -10.76959,1.63568 -16.1607,2.41071 -4.04535,0.58156 -8.09301,1.14704 -12.14286,1.69643 l -8.30357,-1.25 -6.16072,-2.23214 -3.75,-4.28572 -4.01785,-5.53571 -6.408,-7.46148 4.81871,-8.16352 2.32143,-6.07143 c 0.64763,-2.2937 1.30239,-4.58538 1.96428,-6.875 0.70618,-2.44284 1.42047,-4.88333 2.14286,-7.32143 0.54493,-2.61715 1.08065,-5.23622 1.60714,-7.85714 1.0093,-5.0244 1.98467,-10.05557 2.94643,-15.08929 0.5006,-2.62008 0.99752,-5.24091 1.51786,-7.85714 0.29034,-1.45981 0.58796,-2.91816 0.89286,-4.375 0.5042,-1.61742 1.04005,-3.22497 1.60714,-4.82143 0.80117,-2.25543 1.66471,-4.48871 2.58929,-6.69643 l 2.05357,-4.375 1.33928,-2.23214 z"
       id="path4320"
       inkscape:path-effect="#path-effect4322"
       inkscape:original-d="m 681,604.35714 7.57143,0.44643 3.39286,-0.89286 5.53571,-2.67857 1.16072,-0.98214 4.64285,-5.26786 3.30357,-5.80357 17.14286,-29.91071 2.23214,-3.21429 5,-10.625 5.80358,-14.82143 3.92857,-14.10714 2.76785,-12.41072 2.14286,-12.76785 1.60714,-9.73215 2.58929,-14.55357 2.58929,-13.21428 2.67857,-11.42857 2.94643,-9.91072 5.08928,-12.76786 3.57143,-5.80357 6.25,-9.64285 6.78571,-8.48215 9.19643,-8.39285 8.125,-6.16072 8.125,-5.17857 7.5,-3.39286 9.28572,-3.57143 10.35714,-2.85714 9.19643,-1.875 8.92857,-1.25 8.66072,-0.98214 19.375,0.53571 11.51785,1.60715 14.64286,4.64285 10.625,4.10715 11.51786,6.25 11.51785,8.03571 7.14286,5.80357 10.35714,9.46429 7.23215,8.48214 2.94643,3.30357 4.01785,6.51786 2.05357,3.75 4.01786,7.5 3.30357,7.05357 3.03572,7.41071 3.125,10.71429 1.96428,5.625 1.25,5.26786 0.98215,6.96428 1.42857,9.82143 -0.0893,16.875 -1.33928,9.10714 -2.05358,12.41072 -3.66071,11.42857 -5,12.94643 -5,9.46428 -5.53571,9.64286 -5.98215,9.10714 -9.375,12.05358 -9.46428,10.17857 -8.21429,7.94643 -7.76786,7.5 -10.625,8.75 -8.92857,6.69642 -7.5,5.08929 -8.48214,6.16071 -10.71429,6.42858 -11.16071,6.42857 -17.32143,8.92857 -11.875,5.53571 -15.35714,6.78572 -22.32143,8.75 -14.82143,4.82143 -23.03571,6.78571 -20.35715,4.73214 -17.58928,3.57143 -11.60715,2.05357 -6.78571,0.53572 -16.1607,2.41071 -12.14286,1.69643 -8.30357,-1.25 -6.16072,-2.23214 -3.75,-4.28572 -4.01785,-5.53571 -6.408,-7.46148 4.81871,-8.16352 2.32143,-6.07143 1.96428,-6.875 2.14286,-7.32143 1.60714,-7.85714 2.94643,-15.08929 1.51786,-7.85714 0.89286,-4.375 1.60714,-4.82143 2.58929,-6.69643 2.05357,-4.375 1.33928,-2.23214 z"
       inkscape:connector-curvature="0"
       sodipodi:nodetypes="cccccccccccccccccccccccccccccccccccccccccccccccccccccccccccccccccccccccccccccccccccccccccccccccccccc" />
    <path
       style="fill:#000000;fill-opacity:1;fill-rule:evenodd;stroke:none;stroke-width:1px;stroke-linecap:butt;stroke-linejoin:miter;stroke-opacity:1"
       d="m 684.73098,603.96848 3.05664,0.69194 3.28299,-0.69448 3.03046,-1.13642 3.78807,-2.0203 3.03046,-3.59867 2.20971,-2.27284 -5.53934,-0.21875 c -0.88283,0.343 -1.77245,0.66854 -2.66815,0.97636 -1.05398,0.36222 -2.11638,0.6999 -3.18607,1.01269 l -2.99667,2.6829 c -0.98734,1.18796 -1.99797,2.35656 -3.0311,3.50492 -0.32347,0.35954 -0.64914,0.7171 -0.977,1.07265 z"
       id="path4316"
       inkscape:path-effect="#path-effect4318"
       inkscape:original-d="m 684.73098,603.96848 3.05664,0.69194 3.28299,-0.69448 3.03046,-1.13642 3.78807,-2.0203 3.03046,-3.59867 2.20971,-2.27284 -5.53934,-0.21875 -2.66815,0.97636 -3.18607,1.01269 -2.99667,2.6829 -3.0311,3.50492 z"
       inkscape:connector-curvature="0"
       sodipodi:nodetypes="ccccccccccccc" />
    <path
       style="fill:#3e2723;fill-opacity:1;fill-rule:evenodd;stroke:none;stroke-width:1px;stroke-linecap:butt;stroke-linejoin:miter;stroke-opacity:1"
       d="m 126.77414,626.75751 -3.78807,-4.79822 v -18.18275 l 3.03046,-18.94036 6.56599,-21.2132 c 2.34884,-6.13248 4.87564,-12.1968 7.57615,-18.18275 2.02865,-4.49669 4.15506,-8.94865 6.31345,-13.38452 3.21198,-6.60118 6.49523,-13.16768 9.84899,-19.69797 l 13.63706,-22.72844 c 5.92061,-8.72263 12.15526,-17.23208 18.68782,-25.50635 3.85396,-4.8815 7.81158,-9.68117 11.86929,-14.39467 l 9.34391,-9.84899 4.54569,-1.51523 5.05076,0.25254 -0.25254,-5.3033 3.78807,-4.29315 8.08122,-7.07107 c 5.5554,-3.83066 11.19733,-7.53582 16.92006,-11.11168 4.57915,-2.8613 9.21003,-5.63982 13.8896,-8.33375 7.45957,-3.93625 15.04051,-7.64249 22.72843,-11.11168 6.32791,-2.85548 12.72829,-5.55038 19.1929,-8.08122 l 19.95051,-6.31346 33.58757,-8.33375 31.31473,-4.54569 25.50635,-1.76777 6.81853,0.25254 5.05077,4.29315 3.78807,-1.26269 6.06091,-3.03046 c 8.67883,0.34464 17.35128,0.84983 26.01143,1.51523 9.5298,0.73222 19.0447,1.65845 28.53681,2.77792 l 26.26397,6.06091 17.42513,5.80838 18.43528,7.82868 22.22336,13.8896 c 8.02318,6.76481 15.85599,13.75538 23.48605,20.96067 4.15552,3.92417 8.25062,7.91174 12.37436,11.86929 3.26506,3.13347 6.54813,6.24818 9.84899,9.34391 l 8.08122,11.86929 2.52538,5.80838 1.51523,8.83883 c 5.25857,7.26322 10.31201,14.67494 15.15229,22.22336 0.59245,0.92393 1.18172,1.84991 1.76777,2.77792 1.16164,1.02962 2.34036,2.03996 3.53553,3.03046 1.2451,1.03188 2.50804,2.04223 3.78807,3.03045 l 5.3033,6.06092 6.81853,11.36422 c 1.60244,4.03941 3.20185,8.08002 4.79823,12.12183 1.82063,4.60959 3.6377,9.22174 5.3033,13.88959 1.07361,3.00881 2.08406,6.04016 3.03046,9.09138 l 10.85914,-1.51523 10.85914,-0.50508 11.11167,1.26269 10.60661,4.04061 -22.44211,38.95338 -5.33709,-0.0625 -5.80838,2.0203 -3.28299,3.03046 c -1.15103,1.37059 -2.32987,2.71783 -3.53554,4.04061 -1.09487,1.20122 -2.21187,2.38227 -3.35024,3.54235 l -2.67858,5.08928 c -0.80491,1.95184 -1.57885,3.91646 -2.32142,5.89286 -0.8443,2.24716 -1.64805,4.50955 -2.41072,6.78571 -1.10546,5.56463 -2.20665,11.13011 -3.30357,16.69643 -1.22557,6.21919 -2.44581,12.43943 -3.66071,18.66072 l -3.83929,13.21428 c -1.6082,4.39698 -3.27507,8.77249 -5,13.125 -1.67183,4.21852 -3.39822,8.41541 -5.17857,12.58929 l -8.21429,12.41071 c -2.18,2.86804 -4.41264,5.69605 -6.69643,8.48215 -3.34435,4.07993 -6.7984,8.06994 -10.35714,11.96428 l -9.91071,9.73214 -9.46429,7.94643 -9.10714,6.60715 c -2.93843,1.98046 -5.94689,3.85703 -9.01786,5.625 -3.31243,1.90698 -6.69621,3.68692 -10.08928,5.44643 -2.13879,1.10909 -4.28167,2.21029 -6.42858,3.30357 -3.3044,1.40984 -6.63874,2.74952 -10,4.01785 -5.09058,1.92087 -10.24294,3.67803 -15.44642,5.26786 -6.89967,2.07852 -13.8692,3.92515 -20.89286,5.53572 -7.84582,1.7991 -15.75578,3.30301 -23.66072,4.82142 -7.68908,1.47695 -15.37858,2.96858 -23.125,4.10715 -5.99041,0.88047 -12.01012,1.54908 -18.03571,2.14285 -6.77903,0.66802 -13.56704,1.24154 -20.35714,1.78572 -7.7913,0.62442 -15.58665,1.21031 -23.39286,1.60714 -12.54738,0.63784 -25.1196,0.7868 -37.67857,0.44643 -16.02097,-0.68231 -32.03424,-1.54548 -48.03572,-2.58929 -9.08407,-0.59257 -18.16489,-1.24341 -27.23214,-2.05357 -12.35255,-1.1037 -24.67868,-2.50305 -36.96429,-4.19643 l -36.25,-6.60714 -27.58928,-7.23214 -23.83929,-10.53572 -11.96428,-6.78571 -10.71429,-7.41071 -11.16071,-9.28572 c -2.79754,-2.55594 -5.5366,-5.1759 -8.21429,-7.85714 -4.71939,-4.72563 -9.2481,-9.64167 -13.57143,-14.73215 l -8.03571,-11.25 -5.53572,-9.73214 -5.625,-11.78571 -4.01785,-10.26786 -2.05357,-10.80357 -0.53572,-7.23214 0.53572,-9.46429 2.94642,-8.48214 3.125,-5.08929 4.91072,-4.55357 6.51786,-4.01786 5.35714,-1.60714 z"
       id="path4223"
       inkscape:path-effect="#path-effect4225"
       inkscape:original-d="m 126.77414,626.75751 -3.78807,-4.79822 0,-18.18275 3.03046,-18.94036 6.56599,-21.2132 7.57615,-18.18275 6.31345,-13.38452 9.84899,-19.69797 13.63706,-22.72844 18.68782,-25.50635 11.86929,-14.39467 9.34391,-9.84899 4.54569,-1.51523 5.05076,0.25254 -0.25254,-5.3033 3.78807,-4.29315 8.08122,-7.07107 16.92006,-11.11168 13.8896,-8.33375 22.72843,-11.11168 19.1929,-8.08122 19.95051,-6.31346 33.58757,-8.33375 31.31473,-4.54569 25.50635,-1.76777 6.81853,0.25254 5.05077,4.29315 3.78807,-1.26269 6.06091,-3.03046 26.01143,1.51523 28.53681,2.77792 26.26397,6.06091 17.42513,5.80838 18.43528,7.82868 22.22336,13.8896 23.48605,20.96067 12.37436,11.86929 9.84899,9.34391 8.08122,11.86929 2.52538,5.80838 1.51523,8.83883 15.15229,22.22336 1.76777,2.77792 3.53553,3.03046 3.78807,3.03045 5.3033,6.06092 6.81853,11.36422 4.79823,12.12183 5.3033,13.88959 3.03046,9.09138 10.85914,-1.51523 10.85914,-0.50508 11.11167,1.26269 10.60661,4.04061 -22.44211,38.95338 -5.33709,-0.0625 -5.80838,2.0203 -3.28299,3.03046 -3.53554,4.04061 -3.35024,3.54235 -2.67858,5.08928 -2.32142,5.89286 -2.41072,6.78571 -3.30357,16.69643 -3.66071,18.66072 -3.83929,13.21428 -5,13.125 -5.17857,12.58929 -8.21429,12.41071 -6.69643,8.48215 -10.35714,11.96428 -9.91071,9.73214 -9.46429,7.94643 -9.10714,6.60715 -9.01786,5.625 -10.08928,5.44643 -6.42858,3.30357 -10,4.01785 -15.44642,5.26786 -20.89286,5.53572 -23.66072,4.82142 -23.125,4.10715 -18.03571,2.14285 -20.35714,1.78572 -23.39286,1.60714 -37.67857,0.44643 -48.03572,-2.58929 -27.23214,-2.05357 -36.96429,-4.19643 -36.25,-6.60714 -27.58928,-7.23214 -23.83929,-10.53572 -11.96428,-6.78571 -10.71429,-7.41071 -11.16071,-9.28572 -8.21429,-7.85714 -13.57143,-14.73215 -8.03571,-11.25 -5.53572,-9.73214 -5.625,-11.78571 -4.01785,-10.26786 -2.05357,-10.80357 -0.53572,-7.23214 0.53572,-9.46429 2.94642,-8.48214 3.125,-5.08929 4.91072,-4.55357 6.51786,-4.01786 5.35714,-1.60714 z"
       inkscape:connector-curvature="0"
       sodipodi:nodetypes="cccccccccccccccccccccccccccccccccccccccccccccccccccccccccccccccccccccccccccccccccccccccccccccccccccccccccccccc" />
    <path
       style="opacity:0.98999999;fill:#2e7d32;fill-opacity:1;fill-rule:evenodd;stroke:none;stroke-width:1px;stroke-linecap:butt;stroke-linejoin:miter;stroke-opacity:1"
       d="m 224.63267,439.62675 c 11.14862,8.5819 22.51784,16.87723 34.09265,24.87501 7.49143,5.17632 15.06897,10.22801 22.72843,15.15229 l 13.63706,4.92449 7.95495,1.13642 8.83884,-1.13642 c 3.24831,-0.81295 6.48939,-1.65478 9.72272,-2.52538 4.05311,-1.09133 8.09406,-2.22784 12.12183,-3.40927 5.58543,-1.93766 11.14208,-3.95826 16.66751,-6.06091 4.79303,-1.82395 9.56326,-3.70989 14.39468,-5.42957 4.41485,-1.57141 8.87932,-3.00341 13.38452,-4.29315 l 13.8896,-6.31345 7.82868,-4.9245 6.06091,-5.3033 4.79823,-10.48033 3.283,-9.97526 c 0.54103,-3.19986 1.0882,-6.39869 1.64149,-9.59645 1.86647,-10.78732 3.80265,-21.56258 5.80838,-32.32488 l 0.88388,-10.35406 -0.63134,-3.91434 -2.39911,-1.38896 -3.66181,-0.88389 -5.68211,-0.25253 c -3.82863,0.31408 -7.65886,0.60871 -11.49048,0.88388 -5.64484,0.40538 -11.29477,0.7687 -16.92006,1.38896 -4.65125,0.51286 -9.28242,1.2011 -13.88959,2.0203 -5.58374,0.99285 -11.13151,2.17783 -16.66752,3.40927 -7.38481,1.64269 -14.75113,3.36851 -22.09709,5.17703 l -19.31916,6.69226 c -5.09219,2.14814 -10.18505,4.29472 -15.27856,6.43972 -6.10206,2.56973 -12.20507,5.1372 -18.30902,7.70242 l -14.39467,7.57614 c -5.19696,2.93999 -10.29375,6.05703 -15.27856,9.34391 -3.2161,2.12063 -6.38525,4.31168 -9.59645,6.43973 -2.87133,1.90282 -5.77611,3.75514 -8.71256,5.55583 l -3.78807,4.67196 z"
       id="path4272"
       inkscape:path-effect="#path-effect4274"
       inkscape:original-d="m 224.63267,439.62675 34.09265,24.87501 22.72843,15.15229 13.63706,4.92449 7.95495,1.13642 8.83884,-1.13642 9.72272,-2.52538 12.12183,-3.40927 16.66751,-6.06091 14.39468,-5.42957 13.38452,-4.29315 13.8896,-6.31345 7.82868,-4.9245 6.06091,-5.3033 4.79823,-10.48033 3.283,-9.97526 1.64149,-9.59645 5.80838,-32.32488 0.88388,-10.35406 -0.63134,-3.91434 -2.39911,-1.38896 -3.66181,-0.88389 -5.68211,-0.25253 -11.49048,0.88388 -16.92006,1.38896 -13.88959,2.0203 -16.66752,3.40927 -22.09709,5.17703 -19.31916,6.69226 -15.27856,6.43972 -18.30902,7.70242 -14.39467,7.57614 -15.27856,9.34391 -9.59645,6.43973 -8.71256,5.55583 -3.78807,4.67196 z"
       inkscape:connector-curvature="0" />
    <path
       style="fill:#2e7d32;fill-opacity:1;fill-rule:evenodd;stroke:none;stroke-width:1px;stroke-linecap:butt;stroke-linejoin:miter;stroke-opacity:1"
       d="m 430.26185,372.00967 c -1.02454,3.3178 -1.95106,6.66588 -2.77792,10.03839 -0.93779,3.82496 -1.7473,7.68082 -2.46225,11.55362 -0.76754,4.15765 -1.42611,8.33456 -2.14657,12.50063 -1.11485,6.44659 -2.37798,12.86753 -3.78807,19.25604 l -1.01015,10.85914 0.1894,10.92227 1.89404,5.55584 5.17703,6.06092 12.56377,12.37436 c 3.21748,2.98403 6.54561,5.84875 9.97526,8.5863 2.74703,2.19268 5.55862,4.30338 8.39689,6.37659 5.0305,3.67453 10.14623,7.23238 15.34169,10.66973 2.99375,1.83573 6.00332,3.64567 9.02824,5.42957 3.21539,1.89622 6.44846,3.7632 9.72272,5.55584 5.772,3.16014 11.67088,6.08852 17.67767,8.7757 l 4.98763,1.89404 7.70241,0.31567 6.62912,-0.3788 c 2.96421,-0.61525 5.9119,-1.31006 8.83884,-2.08344 3.39337,-0.89662 6.75833,-1.89869 10.10152,-2.96733 4.97638,-1.59068 9.90417,-3.32868 14.83662,-5.05076 5.05388,-1.76447 10.11553,-3.51326 15.08915,-5.4927 4.59083,-1.82709 9.1013,-3.84857 13.63706,-5.80838 4.10958,-1.77567 8.24145,-3.50138 12.31124,-5.36644 3.04634,-1.39605 6.05706,-2.86982 9.02824,-4.41941 2.58898,-1.42832 5.11738,-2.96644 7.57614,-4.60883 0.89321,-0.59664 1.77723,-1.20704 2.65165,-1.8309 l 1.89404,-2.52538 c 0.82946,-2.00836 1.62928,-4.02895 2.39911,-6.06091 0.69818,-1.84282 1.37169,-3.69499 2.0203,-5.55584 v -4.67196 l -1.95717,-4.60882 -6.69226,-9.21764 c -3.34428,-3.78052 -6.81945,-7.44525 -10.4172,-10.98541 -2.76952,-2.72519 -5.61108,-5.37604 -8.46002,-8.01809 -5.75568,-5.33771 -11.54315,-10.64114 -17.362,-15.9099 l -15.34169,-12.2481 -12.62691,-7.57614 -12.62691,-6.50286 -14.2684,-5.36643 c -7.21087,-2.09696 -14.47439,-4.01285 -21.78141,-5.74525 -6.17355,-1.46367 -12.37924,-2.79658 -18.62469,-3.91434 -4.84052,-0.86631 -9.70419,-1.60323 -14.58408,-2.20971 l -19.76111,-1.70463 -17.67767,-0.37881 -3.09359,1.51523 -1.89404,2.14658 z"
       id="path4288"
       inkscape:path-effect="#path-effect4290"
       inkscape:original-d="m 430.26185,372.00967 -2.77792,10.03839 -2.46225,11.55362 -2.14657,12.50063 -3.78807,19.25604 -1.01015,10.85914 0.1894,10.92227 1.89404,5.55584 5.17703,6.06092 12.56377,12.37436 9.97526,8.5863 8.39689,6.37659 15.34169,10.66973 9.02824,5.42957 9.72272,5.55584 17.67767,8.7757 4.98763,1.89404 7.70241,0.31567 6.62912,-0.3788 8.83884,-2.08344 10.10152,-2.96733 14.83662,-5.05076 15.08915,-5.4927 13.63706,-5.80838 12.31124,-5.36644 9.02824,-4.41941 7.57614,-4.60883 2.65165,-1.8309 1.89404,-2.52538 2.39911,-6.06091 2.0203,-5.55584 0,-4.67196 -1.95717,-4.60882 -6.69226,-9.21764 -10.4172,-10.98541 -8.46002,-8.01809 -17.362,-15.9099 -15.34169,-12.2481 -12.62691,-7.57614 -12.62691,-6.50286 -14.2684,-5.36643 -21.78141,-5.74525 -18.62469,-3.91434 -14.58408,-2.20971 -19.76111,-1.70463 -17.67767,-0.37881 -3.09359,1.51523 -1.89404,2.14658 z"
       inkscape:connector-curvature="0" />
    <path
       style="fill:#2e7d32;fill-opacity:1;fill-rule:evenodd;stroke:none;stroke-width:1px;stroke-linecap:butt;stroke-linejoin:miter;stroke-opacity:1"
       d="m 471.23616,653.77909 c -26.01137,10.48421 -52.57725,19.59251 -79.54951,27.27412 l -14.14214,6.06092 -4.04061,4.29314 -5.3033,12.62691 c -1.9369,6.68843 -3.70542,13.42563 -5.3033,20.20305 -2.16737,9.19291 -4.02076,18.45984 -5.55584,27.7792 l 0.12627,1.89403 c 3.82922,0.12141 7.65963,0.2056 11.49049,0.25254 7.76578,0.0952 15.53359,0.0372 23.29664,-0.1894 8.27497,-0.24158 16.54297,-0.6748 24.81187,-1.07329 8.64772,-0.41675 17.29726,-0.79556 25.9483,-1.13642 6.6483,-0.73111 13.27977,-1.6153 19.88737,-2.65165 9.40454,-1.47502 18.75807,-3.25778 28.09487,-5.1139 10.24596,-2.03686 20.47427,-4.16249 30.68339,-6.37659 l 16.85692,-5.24016 c 4.47431,-1.61465 8.91598,-3.31975 13.32138,-5.1139 1.92209,-0.78279 3.83727,-1.58254 5.74525,-2.39911 l 6.56599,-4.23002 2.90419,-2.20971 4.54568,-4.23001 3.72494,-4.41942 c -2.48074,-2.56998 -5.02831,-5.07545 -7.63928,-7.51301 -2.00453,-1.8714 -4.04642,-3.70279 -6.12405,-5.4927 -4.0053,-3.04261 -8.00383,-6.09413 -11.99556,-9.15451 -2.94288,-2.25625 -5.88209,-4.51734 -8.83883,-6.75539 -2.63783,-1.99666 -5.28957,-3.97494 -7.95496,-5.93465 -3.15197,-1.85466 -6.33017,-3.66475 -9.53331,-5.42957 -3.37318,-1.8585 -6.77379,-3.66666 -10.16466,-5.4927 -4.81789,-2.59451 -9.6163,-5.22522 -14.39467,-7.89182 l -5.42957,-2.33598 -6.25032,-2.20971 -5.55584,-0.63134 -6.18719,1.19955 c -1.34537,0.55085 -2.69224,1.09802 -4.04061,1.6415 z"
       id="path4308"
       inkscape:path-effect="#path-effect4310"
       inkscape:original-d="m 471.23616,653.77909 -79.54951,27.27412 -14.14214,6.06092 -4.04061,4.29314 -5.3033,12.62691 -5.3033,20.20305 -5.55584,27.7792 0.12627,1.89403 11.49049,0.25254 23.29664,-0.1894 24.81187,-1.07329 25.9483,-1.13642 19.88737,-2.65165 28.09487,-5.1139 30.68339,-6.37659 16.85692,-5.24016 13.32138,-5.1139 5.74525,-2.39911 6.56599,-4.23002 2.90419,-2.20971 4.54568,-4.23001 3.72494,-4.41942 -7.63928,-7.51301 -6.12405,-5.4927 -11.99556,-9.15451 -8.83883,-6.75539 -7.95496,-5.93465 -9.53331,-5.42957 -10.16466,-5.4927 -14.39467,-7.89182 -5.42957,-2.33598 -6.25032,-2.20971 -5.55584,-0.63134 -6.18719,1.19955 z"
       inkscape:connector-curvature="0" />
    <path
       style="fill:#2e7d32;fill-opacity:1;fill-rule:evenodd;stroke:none;stroke-width:1px;stroke-linecap:butt;stroke-linejoin:miter;stroke-opacity:1"
       d="m 212.67857,444.53571 -19.10809,20.47112 -12.87944,16.73066 c -2.60331,4.10771 -5.21288,8.21146 -7.82869,12.31123 -3.24458,5.08525 -6.49935,10.16529 -9.59644,15.34169 -2.87388,4.80332 -5.61118,9.68835 -8.20749,14.64721 -3.16854,6.42585 -6.22071,12.90908 -9.15451,19.44544 -3.05422,6.80466 -5.98015,13.66691 -8.7757,20.58186 l -5.87151,19.76111 -2.65165,13.06885 0.12627,3.34613 -1.2627,16.28871 0.25254,3.34613 4.54569,5.36643 c 4.08769,3.3356 8.14951,6.70292 12.18496,10.10153 3.47096,2.92321 6.92242,5.86957 10.35407,8.83883 l 3.28299,1.51523 7.13421,-0.31567 c 3.80304,-0.81803 7.59187,-1.70209 11.36421,-2.65165 5.11123,-1.28658 10.19328,-2.69375 15.21542,-4.29315 4.98466,-1.58746 9.90693,-3.36317 14.83662,-5.1139 4.92581,-1.74935 9.86233,-3.47496 14.71035,-5.42957 4.02145,-1.62136 7.97791,-3.39864 11.93242,-5.17703 3.96803,-1.78446 7.93559,-3.57068 11.8693,-5.42957 1.96584,-0.92897 3.92312,-1.87604 5.87151,-2.84105 l 8.33376,-4.79823 4.48255,-3.09359 3.91434,-3.34613 2.46225,-4.10375 c 0.63678,-1.31342 1.24724,-2.6396 1.8309,-3.97747 1.03157,-2.36458 1.97938,-4.7657 2.84105,-7.19734 l 2.08344,-7.82868 c 0.52628,-2.42863 0.98947,-4.87093 1.38896,-7.32361 0.84691,-5.19963 1.40688,-10.4414 2.14658,-15.65736 0.76369,-5.38511 1.7187,-10.74093 2.65165,-16.09931 0.75072,-4.31176 1.4873,-8.62598 2.2097,-12.94258 0.20324,-4.07984 0.32954,-8.1635 0.37881,-12.2481 0.046,-3.80909 0.0249,-7.619 -0.0631,-11.42735 l -1.70464,-5.87151 -4.48255,-7.3236 -4.60882,-5.68211 c -3.00472,-2.71999 -6.01414,-5.43478 -9.02824,-8.14436 -3.02574,-2.72004 -6.0562,-5.43483 -9.09137,-8.14435 -4.41825,-2.98341 -8.77574,-6.05681 -13.06885,-9.21764 -3.32842,-2.45058 -6.6179,-4.95351 -9.91212,-7.44988 -3.42503,-2.5955 -6.85535,-5.18402 -10.29093,-7.76555 l -4.48255,-1.64149 h -4.10375 z"
       id="path4292"
       inkscape:path-effect="#path-effect4294"
       inkscape:original-d="m 212.67857,444.53571 -19.10809,20.47112 -12.87944,16.73066 -7.82869,12.31123 -9.59644,15.34169 -8.20749,14.64721 -9.15451,19.44544 -8.7757,20.58186 -5.87151,19.76111 -2.65165,13.06885 0.12627,3.34613 -1.2627,16.28871 0.25254,3.34613 4.54569,5.36643 12.18496,10.10153 10.35407,8.83883 3.28299,1.51523 7.13421,-0.31567 11.36421,-2.65165 15.21542,-4.29315 14.83662,-5.1139 14.71035,-5.42957 11.93242,-5.17703 11.8693,-5.42957 5.87151,-2.84105 8.33376,-4.79823 4.48255,-3.09359 3.91434,-3.34613 2.46225,-4.10375 1.8309,-3.97747 2.84105,-7.19734 2.08344,-7.82868 1.38896,-7.32361 2.14658,-15.65736 2.65165,-16.09931 2.2097,-12.94258 0.37881,-12.2481 -0.0631,-11.42735 -1.70464,-5.87151 -4.48255,-7.3236 -4.60882,-5.68211 -9.02824,-8.14436 -9.09137,-8.14435 -13.06885,-9.21764 -9.91212,-7.44988 -10.29093,-7.76555 -4.48255,-1.64149 -4.10375,0 z"
       inkscape:connector-curvature="0"
       sodipodi:nodetypes="ccccccccccc" />
    <path
       style="fill:#2e7d32;fill-opacity:1;fill-rule:evenodd;stroke:none;stroke-width:1px;stroke-linecap:butt;stroke-linejoin:miter;stroke-opacity:1"
       d="m 409.46429,462.39286 -12.14286,0.35714 -18.92857,4.82143 c -5.80737,2.08254 -11.60401,4.19504 -17.38959,6.33737 -4.20858,1.55839 -8.41134,3.13257 -12.62691,4.67196 -6.07715,2.21917 -12.18073,4.36595 -18.30902,6.43972 l -17.23572,8.7757 -9.15451,5.42957 -4.29315,4.86136 -3.97747,9.97526 -4.29315,13.82646 c -0.74089,4.1699 -1.49852,8.33682 -2.27285,12.50064 -0.71239,3.83074 -1.43893,7.65885 -2.14657,11.49048 -1.16194,6.29152 -2.27335,12.59524 -3.09359,18.94036 -0.30958,2.39481 -0.57759,4.79487 -0.82075,7.19734 -0.28722,2.83783 -0.53979,5.67916 -0.75762,8.52316 l 0.25254,8.20749 1.13642,11.49049 4.35629,7.07106 6.37658,7.26048 7.13421,7.1342 7.38674,6.25032 c 2.90075,2.00803 5.76353,4.07091 8.58629,6.18718 3.71134,2.78246 7.35292,5.65674 11.04855,8.46003 3.24961,2.46497 6.54071,4.87482 9.84899,7.26047 3.18285,2.2952 6.38177,4.56812 9.59644,6.81853 3.06243,1.87774 6.17878,3.66753 9.34392,5.36644 3.45854,1.85639 6.97533,3.60426 10.54346,5.24016 l 6.18719,1.4521 5.99778,0.31567 c 2.38385,-0.24516 4.7626,-0.53987 7.1342,-0.88388 3.68158,-0.53402 7.34593,-1.18687 10.98541,-1.95717 3.52918,-0.98021 7.04416,-2.01156 10.54347,-3.0936 4.01215,-1.24062 8.00336,-2.54778 11.99556,-3.8512 3.4606,-1.12986 6.92254,-2.2571 10.35406,-3.4724 4.23341,-1.49929 8.41899,-3.13207 12.56377,-4.86136 4.69571,-1.95915 9.33901,-4.04209 13.95274,-6.18719 4.36164,-2.0279 8.69735,-4.11156 13.00571,-6.25032 l 6.9448,-4.60882 3.91434,-3.53553 3.4724,-3.85121 3.34613,-7.19733 c 0.97187,-3.17661 1.93994,-6.35439 2.90419,-9.53332 0.91633,-3.02094 1.82938,-6.04348 2.65165,-9.09137 0.42412,-1.57208 0.82404,-3.15069 1.19955,-4.73509 0.37389,-2.73369 0.73166,-5.46958 1.07329,-8.20749 0.55172,-4.42161 1.06142,-8.84902 1.70463,-13.25825 0.67943,-4.65752 1.50784,-9.29409 2.52539,-13.8896 0.28031,-1.26597 0.57497,-2.52877 0.88388,-3.78807 0.19365,-4.43778 0.2989,-8.87942 0.31567,-13.32139 0.0199,-5.28376 -0.0853,-10.56799 -0.31567,-15.84677 l -1.89404,-5.80837 -3.53553,-4.54569 -6.37659,-5.99778 c -2.09909,-1.66936 -4.20359,-3.33191 -6.31345,-4.98763 -6.32815,-4.96603 -12.70456,-9.87056 -19.12977,-14.71035 -4.24293,-3.19599 -8.5073,-6.36386 -12.81631,-9.47018 -6.85244,-4.93984 -13.81752,-9.72379 -20.89753,-14.33154 -3.25897,-2.12097 -6.54225,-4.20459 -9.84898,-6.25031 l -7.57615,-4.04061 z"
       id="path4296"
       inkscape:path-effect="#path-effect4298"
       inkscape:original-d="m 409.46429,462.39286 -12.14286,0.35714 -18.92857,4.82143 -17.38959,6.33737 -12.62691,4.67196 -18.30902,6.43972 -17.23572,8.7757 -9.15451,5.42957 -4.29315,4.86136 -3.97747,9.97526 -4.29315,13.82646 -2.27285,12.50064 -2.14657,11.49048 -3.09359,18.94036 -0.82075,7.19734 -0.75762,8.52316 0.25254,8.20749 1.13642,11.49049 4.35629,7.07106 6.37658,7.26048 7.13421,7.1342 7.38674,6.25032 8.58629,6.18718 11.04855,8.46003 9.84899,7.26047 9.59644,6.81853 9.34392,5.36644 10.54346,5.24016 6.18719,1.4521 5.99778,0.31567 7.1342,-0.88388 10.98541,-1.95717 10.54347,-3.0936 11.99556,-3.8512 10.35406,-3.4724 12.56377,-4.86136 13.95274,-6.18719 13.00571,-6.25032 6.9448,-4.60882 3.91434,-3.53553 3.4724,-3.85121 3.34613,-7.19733 2.90419,-9.53332 2.65165,-9.09137 1.19955,-4.73509 1.07329,-8.20749 1.70463,-13.25825 2.52539,-13.8896 0.88388,-3.78807 0.31567,-13.32139 -0.31567,-15.84677 -1.89404,-5.80837 -3.53553,-4.54569 -6.37659,-5.99778 -6.31345,-4.98763 -19.12977,-14.71035 -12.81631,-9.47018 -20.89753,-14.33154 -9.84898,-6.25031 -7.57615,-4.04061 z"
       inkscape:connector-curvature="0" />
    <path
       style="fill:#2e7d32;fill-opacity:1;fill-rule:evenodd;stroke:none;stroke-width:1px;stroke-linecap:butt;stroke-linejoin:miter;stroke-opacity:1"
       d="m 611.39483,493.66991 c -9.5326,3.84264 -19.08717,7.6308 -28.66308,11.36422 -15.14185,5.90345 -30.33705,11.67005 -45.58313,17.29886 l -13.8896,6.43972 -6.62913,4.79823 -4.41941,6.75539 -4.60882,14.71035 -2.90419,14.079 c -0.63951,5.50813 -1.39736,11.00253 -2.27285,16.47811 -1.17706,7.36168 -2.56679,14.68936 -4.16688,21.97082 -0.20898,6.88109 -0.12469,13.77107 0.25254,20.64499 0.10402,1.89543 0.2303,3.78964 0.37881,5.68211 l 1.51523,3.72494 3.03046,4.54569 c 2.50595,2.71031 5.07432,5.3629 7.70241,7.95495 4.54072,4.47846 9.25974,8.77614 14.14213,12.87944 4.0094,3.35232 8.09345,6.61535 12.2481,9.78586 5.08459,3.88016 10.27561,7.62221 15.59423,11.17481 4.12804,2.75735 8.33303,5.40058 12.62691,7.89182 3.19353,1.85283 6.43594,3.62142 9.72272,5.3033 l 7.57614,2.52538 c 2.73043,-4.36542 5.50857,-8.70101 8.33376,-13.00572 1.65267,-2.51815 3.32161,-5.02601 4.9245,-7.57614 3.02601,-4.81424 5.8136,-9.77429 8.52316,-14.77348 1.98709,-3.66621 3.93347,-7.35573 5.74524,-11.11168 1.66936,-3.46071 3.22338,-6.9756 4.79823,-10.48033 1.39348,-3.10109 2.80351,-6.19474 4.23001,-9.28078 l 6.75539,-18.30901 1.6415,-7.38674 2.08344,-5.87152 c 0.82996,-1.85729 1.67178,-3.70929 2.52538,-5.55583 1.03496,-2.23886 2.08724,-4.4697 3.15673,-6.69227 1.09836,-1.54328 2.23525,-3.05914 3.40926,-4.54568 1.36283,-1.72564 2.77532,-3.41134 4.16688,-5.1139 1.19391,-1.46073 2.37251,-2.93398 3.53554,-4.41942 l 5.74524,-5.11389 6.06092,-4.10375 5.55583,-4.48255 6.12405,-3.34613 7.82869,-3.40927 c -0.81939,-2.75611 -1.7036,-5.49295 -2.65165,-8.20749 -0.89584,-2.56505 -1.84862,-5.11003 -2.84106,-7.63927 -0.93499,-2.38283 -1.90517,-4.75173 -2.84105,-7.13421 -1.00164,-2.54989 -1.96415,-5.11574 -3.03046,-7.63927 -0.98598,-2.33341 -2.06029,-4.62949 -3.21986,-6.88167 l -5.1139,-8.39689 -4.60882,-6.06092 -7.1342,-5.05076 -9.91212,-3.6618 -12.0587,-1.26269 z"
       id="path4300"
       inkscape:path-effect="#path-effect4302"
       inkscape:original-d="m 611.39483,493.66991 -28.66308,11.36422 -45.58313,17.29886 -13.8896,6.43972 -6.62913,4.79823 -4.41941,6.75539 -4.60882,14.71035 -2.90419,14.079 -2.27285,16.47811 -4.16688,21.97082 0.25254,20.64499 0.37881,5.68211 1.51523,3.72494 3.03046,4.54569 7.70241,7.95495 14.14213,12.87944 12.2481,9.78586 15.59423,11.17481 12.62691,7.89182 9.72272,5.3033 7.57614,2.52538 8.33376,-13.00572 4.9245,-7.57614 8.52316,-14.77348 5.74524,-11.11168 4.79823,-10.48033 4.23001,-9.28078 6.75539,-18.30901 1.6415,-7.38674 2.08344,-5.87152 2.52538,-5.55583 3.15673,-6.69227 3.40926,-4.54568 4.16688,-5.1139 3.53554,-4.41942 5.74524,-5.11389 6.06092,-4.10375 5.55583,-4.48255 6.12405,-3.34613 7.82869,-3.40927 -2.65165,-8.20749 -2.84106,-7.63927 -2.84105,-7.13421 -3.03046,-7.63927 -3.21986,-6.88167 -5.1139,-8.39689 -4.60882,-6.06092 -7.1342,-5.05076 -9.91212,-3.6618 -12.0587,-1.26269 z"
       inkscape:connector-curvature="0" />
    <path
       style="fill:#2e7d32;fill-opacity:1;fill-rule:evenodd;stroke:none;stroke-width:1px;stroke-linecap:butt;stroke-linejoin:miter;stroke-opacity:1"
       d="M 258.21429,622.21428 C 239.7695,627.83653 221.18383,633.00397 202.85714,639 c -12.63642,4.13432 -25.14445,8.66103 -37.5,13.57143 l -9.46428,5.35714 -3.03572,6.60714 -3.21428,9.82143 -0.14028,3.16054 c 2.11684,2.73142 4.20049,5.48856 6.25032,8.27062 2.27259,3.08439 4.50361,6.1994 6.69226,9.34391 l 9.28077,9.21764 6.9448,5.74525 13.63706,9.72271 12.94258,7.07107 12.31123,5.68211 24.55934,7.95495 17.23573,4.23002 c 5.83901,1.01609 11.69002,1.9632 17.5514,2.84105 8.46022,1.26708 16.94224,2.38989 25.44321,3.34613 6.47191,0.728 12.95469,1.35944 19.44544,1.89404 6.73408,0.12192 13.46845,0.22715 20.20305,0.31567 3.55652,0.0468 7.11311,0.0888 10.66974,0.12627 l 1.6415,-14.71035 c 0.74242,-3.74904 1.50004,-7.49506 2.27284,-11.23795 0.47822,-2.31614 0.96225,-4.63109 1.45209,-6.9448 l 1.07329,-7.57614 c 0.23778,-3.46857 0.40618,-6.9419 0.50508,-10.4172 0.11495,-4.03939 0.13599,-8.08146 0.0631,-12.12183 l -1.01015,-4.79822 -1.51523,-3.40927 c -0.99722,-1.43444 -2.02881,-2.84498 -3.09359,-4.23001 -1.37649,-1.79049 -2.80846,-3.53833 -4.29315,-5.24017 -1.6163,-1.58533 -3.27983,-3.12251 -4.98763,-4.60882 -1.80293,-1.5691 -3.65463,-3.08103 -5.4927,-4.60882 -2.42254,-2.0136 -4.82187,-4.05513 -7.19734,-6.12405 -6.4841,-4.36227 -12.84312,-8.91045 -19.06663,-13.63706 -2.08155,-1.58089 -4.14807,-3.18183 -6.25032,-4.73509 -3.9023,-2.88324 -7.92666,-5.60126 -12.05869,-8.14435 l -9.34392,-4.98763 c -3.4931,-1.41086 -6.98654,-2.82087 -10.48033,-4.23002 -1.30473,-0.52624 -2.60951,-1.05236 -3.91434,-1.57836 h -3.78807 l -5.87151,1.32583 c -1.03273,0.31792 -2.06591,0.63441 -3.09952,0.94947 z"
       id="path4304"
       inkscape:path-effect="#path-effect4306"
       inkscape:original-d="M 258.21429,622.21428 202.85714,639 l -37.5,13.57143 -9.46428,5.35714 -3.03572,6.60714 -3.21428,9.82143 -0.14028,3.16054 6.25032,8.27062 6.69226,9.34391 9.28077,9.21764 6.9448,5.74525 13.63706,9.72271 12.94258,7.07107 12.31123,5.68211 24.55934,7.95495 17.23573,4.23002 17.5514,2.84105 25.44321,3.34613 19.44544,1.89404 20.20305,0.31567 10.66974,0.12627 1.6415,-14.71035 2.27284,-11.23795 1.45209,-6.9448 1.07329,-7.57614 0.50508,-10.4172 0.0631,-12.12183 -1.01015,-4.79822 -1.51523,-3.40927 -3.09359,-4.23001 -4.29315,-5.24017 -4.98763,-4.60882 -5.4927,-4.60882 -7.19734,-6.12405 -19.06663,-13.63706 -6.25032,-4.73509 -12.05869,-8.14435 -9.34392,-4.98763 -10.48033,-4.23002 -3.91434,-1.57836 -3.78807,0 -5.87151,1.32583 z"
       inkscape:connector-curvature="0" />
    <path
       style="fill:#2e7d32;fill-opacity:1;fill-rule:evenodd;stroke:none;stroke-width:1px;stroke-linecap:butt;stroke-linejoin:miter;stroke-opacity:1"
       d="m 128.03684,630.67185 c -2.20462,0.43227 -4.3949,0.93772 -6.566,1.51523 l -6.18718,3.15673 -5.55584,5.55584 -4.04061,7.70241 -1.01015,7.44987 -0.12627,9.09138 1.6415,9.34391 c 0.54218,2.0415 1.1421,4.06768 1.79878,6.07528 0.75823,2.31805 1.59216,4.61135 2.5,6.875 l 4.6875,10.49107 c 1.45393,2.43158 2.94222,4.84262 4.46429,7.23214 2.34612,3.68322 4.77248,7.31532 7.27678,10.89286 l 12.8125,15.13393 7.85715,7.67857 c 2.17007,1.89521 4.3577,3.77031 6.5625,5.625 2.58083,2.171 5.1852,4.31403 7.8125,6.42857 2.54822,1.62505 5.10783,3.23224 7.67857,4.82143 2.68538,1.66006 5.38334,3.30071 8.125,4.86607 2.94306,1.68034 5.93588,3.27354 8.97321,4.77679 l 10.58036,4.73214 c 3.59886,1.29905 7.21538,2.54921 10.84821,3.75 3.91023,1.29248 7.83936,2.52778 11.78572,3.70536 2.80597,0.711 5.61864,1.39556 8.4375,2.05357 4.68252,1.09305 9.38196,2.11278 14.0625,3.21428 3.87944,0.91297 7.74672,1.88229 11.65178,2.67858 4.27682,0.87209 8.59293,1.53542 12.90179,2.23214 3.27031,0.52879 6.53809,1.07709 9.82143,1.51786 3.66637,0.49219 7.34922,0.8499 11.02678,1.25 3.45532,0.37592 6.90643,0.78932 10.35715,1.20535 3.10809,0.37472 6.21613,0.75161 9.33035,1.07143 3.09067,0.3174 6.18696,0.57855 9.28572,0.80357 2.58768,0.18791 5.17717,0.35064 7.76786,0.49107 6.06985,0.32903 12.14603,0.53568 18.21428,0.89286 5.71481,0.33638 11.42241,0.80625 17.14286,1.02679 5.78548,0.22305 11.57757,0.19081 17.36607,0.3125 7.9633,0.16741 15.91936,0.62614 23.88393,0.71428 5.86482,0.0649 11.73108,-0.0712 17.58928,-0.35714 3.93116,-0.19187 7.85869,-0.45116 11.78572,-0.71429 3.27515,-0.21945 6.55028,-0.44161 9.82143,-0.71428 6.29395,-0.52465 12.57095,-1.23616 18.83928,-2.00893 3.95375,-0.48743 7.90584,-0.99941 11.875,-1.33929 2.48357,-0.21267 4.97265,-0.35784 7.45536,-0.58035 3.63595,-0.32587 7.25703,-0.81762 10.84821,-1.47322 2.51634,-0.62342 5.047,-1.1891 7.58929,-1.69643 4.15603,-0.82936 8.34188,-1.50259 12.5,-2.32142 4.02108,-0.79185 8.01396,-1.71941 12.00893,-2.63393 5.75632,-1.31772 11.52011,-2.60906 17.23214,-4.10715 5.1973,-1.36309 10.34981,-2.89693 15.44643,-4.59821 l 14.0625,-5.17857 9.46429,-4.24107 c 2.213,-1.30193 4.43027,-2.59658 6.65178,-3.88393 3.81203,-2.20905 7.63652,-4.39659 11.47322,-6.5625 2.60713,-1.98579 5.19655,-3.99483 7.76785,-6.02679 3.24424,-2.56376 6.46017,-5.16445 9.59822,-7.85714 2.61505,-2.24392 5.17558,-4.55137 7.67857,-6.91964 1.90673,-2.0092 3.78203,-4.04823 5.625,-6.11607 3.00492,-3.37157 5.92329,-6.81909 8.83928,-10.26786 1.62265,-1.91912 3.24467,-3.83876 4.86608,-5.75893 1.1772,-1.68014 2.30871,-3.39229 3.39285,-5.13393 1.44984,-2.32912 2.81447,-4.71014 4.24107,-7.05357 1.54983,-2.54586 3.17275,-5.04724 4.86608,-7.5 1.65677,-3.56181 3.19072,-7.18074 4.59821,-10.84821 0.83322,-2.1711 1.62213,-4.35921 2.36607,-6.5625 1.23368,-4.13924 2.42424,-8.29132 3.57143,-12.45536 0.87338,-3.17018 1.72184,-6.34814 2.45536,-9.55357 0.82356,-3.59893 1.5015,-7.22928 2.23214,-10.84822 0.58334,-2.88934 1.20034,-5.77179 1.78571,-8.66071 0.46656,-2.30259 0.91301,-4.60925 1.33929,-6.91964 0.63976,-1.88496 1.26479,-3.77492 1.875,-5.66965 0.83111,-2.58063 1.63474,-5.17011 2.41071,-7.76785 l 2.09822,-4.50893 c 1.08565,-1.69166 2.18691,-3.3733 3.30357,-5.04465 1.23135,-1.843 2.48143,-3.67349 3.75,-5.49107 l 3.97322,-4.375 1.69642,-1.51785 c 0.86286,-0.17972 1.72596,-0.35829 2.58929,-0.53572 1.42938,-0.29376 2.85944,-0.58439 4.28571,-0.89286 1.49249,-0.32279 2.98075,-0.66509 4.46429,-1.02678 l 4.99107,0.0625 c 0.80068,-1.42296 1.60724,-2.84262 2.41964,-4.25893 1.0846,-1.89086 2.17963,-3.77575 3.25893,-5.66964 1.04916,-1.84099 2.08343,-3.69042 3.125,-5.53572 1.22846,-2.17639 2.46708,-4.34703 3.70536,-6.51785 1.02702,-1.80046 2.05381,-3.60106 3.08036,-5.40179 0.25212,-0.44226 0.52533,-0.87193 0.80225,-1.29909 0.27693,-0.42717 0.55379,-0.8756 0.62632,-1.37948 0.0457,-0.31784 0.004,-0.64636 -0.10896,-0.94701 -0.1128,-0.30064 -0.29539,-0.57349 -0.52176,-0.80124 -0.45274,-0.4555 -1.07036,-0.7228 -1.70255,-0.83585 -1.2644,-0.2261 -2.55,0.12874 -3.82745,0.26267 -1.84799,0.19375 -3.71537,-0.0781 -5.52734,-0.48958 -1.81198,-0.41154 -3.59088,-0.96286 -5.41016,-1.34078 -3.88815,-0.80768 -7.9422,-0.80768 -11.83035,0 l -8.34822,1.5625 c -2.74518,0.8404 -5.4834,1.70353 -8.21428,2.58929 -1.89345,0.61414 -3.78338,1.23915 -5.66965,1.875 -2.26676,1.42087 -4.52868,2.84945 -6.78571,4.28571 -2.11741,1.34742 -4.23052,2.70159 -6.33929,4.0625 l -5.53571,4.55357 -5.66964,5.35715 c -1.30537,1.69196 -2.58533,3.40353 -3.83929,5.13393 -1.44866,1.99907 -2.86264,4.02329 -4.24107,6.07142 l -3.39286,6.60715 -2.85714,7.41071 -2.41072,9.01786 c -1.02517,2.88223 -2.03709,5.76917 -3.03571,8.66071 -0.98009,2.83788 -1.94736,5.68018 -2.90179,8.52679 -1.06776,2.3096 -2.10952,4.63122 -3.125,6.96428 -1.24225,2.85406 -2.44519,5.72523 -3.70535,8.57143 -1.30995,2.95866 -2.68157,5.88994 -4.10715,8.79465 -1.89155,3.85416 -3.87805,7.66145 -5.9375,11.42857 -1.52117,2.78251 -3.08211,5.54306 -4.64285,8.30357 -2.28387,4.03952 -4.56782,8.07983 -6.96429,12.05357 -2.22588,3.69087 -4.54837,7.32348 -6.96428,10.89286 l -7.32143,9.95535 c -2.64979,3.07951 -5.2986,6.15987 -7.94643,9.24108 -0.90786,1.05645 -1.8156,2.11299 -2.72322,3.16964 l -6.07142,4.55357 -5.89286,3.52679 c -2.60892,1.17391 -5.2437,2.29034 -7.90179,3.34821 -4.47049,1.77917 -9.00579,3.39225 -13.57143,4.91071 -4.99397,1.66091 -10.02543,3.20906 -15.08928,4.64286 -7.71536,1.99143 -15.48741,3.76322 -23.30357,5.3125 -3.77328,0.74792 -7.55662,1.44396 -11.33929,2.14286 -4.98277,0.92064 -9.9647,1.84632 -14.95536,2.72321 -4.73956,0.83277 -9.48686,1.6215 -14.24107,2.36607 -8.70997,1.07361 -17.4495,1.90736 -26.20535,2.5 -9.8082,0.66386 -19.6353,1.02511 -29.46429,1.20536 -9.25475,0.16972 -18.51199,0.17904 -27.76786,0.0893 -3.80948,-0.0369 -7.61891,-0.0907 -11.42857,-0.0893 -8.94391,0.003 -17.88818,0.30977 -26.83036,0.13393 -8.48132,-0.16678 -16.94824,-0.76735 -25.40178,-1.47321 -4.66155,-0.38924 -9.32056,-0.81057 -13.97322,-1.29465 -9.03169,-0.93969 -18.03877,-2.11582 -27.00892,-3.52678 -5.05979,-0.95041 -10.1052,-1.97735 -15.13393,-3.08036 -7.67552,-1.68356 -15.31216,-3.54434 -22.90179,-5.58036 -5.22543,-1.74203 -10.40627,-3.61785 -15.53571,-5.625 -3.80901,-1.49046 -7.58968,-3.05334 -11.33929,-4.6875 l -12.32143,-6.07143 c -2.51277,-1.44714 -4.98434,-2.96582 -7.41071,-4.55357 -2.87825,-1.88346 -5.69289,-3.86413 -8.4375,-5.9375 l -12.32143,-10.3125 c -2.36568,-2.42935 -4.67311,-4.91542 -6.91964,-7.45535 -2.15499,-2.43643 -4.25395,-4.92243 -6.29465,-7.45536 -1.12618,-1.6251 -2.21291,-3.27754 -3.25893,-4.95536 -1.14766,-1.84087 -2.24607,-3.71188 -3.34821,-5.58036 -1.27457,-2.16081 -2.55434,-4.31855 -3.83929,-6.47321 -0.93006,-2.06512 -1.85268,-4.1336 -2.76785,-6.20536 -0.99089,-2.24319 -1.97305,-4.49023 -2.94643,-6.74107 -0.73929,-2.02014 -1.46847,-4.04399 -2.1875,-6.07143 -1.11056,-3.13142 -2.19691,-6.27143 -3.25893,-9.41964 -0.57899,-2.78302 -1.15935,-5.56576 -1.74107,-8.34821 -0.26757,-1.27982 -0.53543,-2.55959 -0.80357,-3.83929 l 0.13393,-2.41071 c -0.26769,0.0503 -0.53517,0.10158 -0.80245,0.15399 z"
       id="path4312"
       inkscape:path-effect="#path-effect4314"
       inkscape:original-d="m 128.03684,630.67185 -6.566,1.51523 -6.18718,3.15673 -5.55584,5.55584 -4.04061,7.70241 -1.01015,7.44987 -0.12627,9.09138 1.6415,9.34391 1.79878,6.07528 2.5,6.875 4.6875,10.49107 4.46429,7.23214 7.27678,10.89286 12.8125,15.13393 7.85715,7.67857 6.5625,5.625 7.8125,6.42857 7.67857,4.82143 8.125,4.86607 8.97321,4.77679 10.58036,4.73214 10.84821,3.75 11.78572,3.70536 8.4375,2.05357 14.0625,3.21428 11.65178,2.67858 12.90179,2.23214 9.82143,1.51786 11.02678,1.25 10.35715,1.20535 9.33035,1.07143 9.28572,0.80357 7.76786,0.49107 18.21428,0.89286 17.14286,1.02679 17.36607,0.3125 23.88393,0.71428 17.58928,-0.35714 11.78572,-0.71429 9.82143,-0.71428 18.83928,-2.00893 11.875,-1.33929 7.45536,-0.58035 10.84821,-1.47322 7.58929,-1.69643 12.5,-2.32142 12.00893,-2.63393 17.23214,-4.10715 15.44643,-4.59821 14.0625,-5.17857 9.46429,-4.24107 6.65178,-3.88393 11.47322,-6.5625 7.76785,-6.02679 9.59822,-7.85714 7.67857,-6.91964 5.625,-6.11607 8.83928,-10.26786 4.86608,-5.75893 3.39285,-5.13393 4.24107,-7.05357 4.86608,-7.5 4.59821,-10.84821 2.36607,-6.5625 3.57143,-12.45536 2.45536,-9.55357 2.23214,-10.84822 1.78571,-8.66071 1.33929,-6.91964 1.875,-5.66965 2.41071,-7.76785 2.09822,-4.50893 3.30357,-5.04465 3.75,-5.49107 3.97322,-4.375 1.69642,-1.51785 2.58929,-0.53572 4.28571,-0.89286 4.46429,-1.02678 4.99107,0.0625 2.41964,-4.25893 3.25893,-5.66964 3.125,-5.53572 3.70536,-6.51785 3.08036,-5.40179 c 0,0 1.25,-2.09821 1.42857,-2.67857 0.17857,-0.58036 -6.16072,-2.32143 -6.16072,-2.32143 0,0 -7.05357,-2.32143 -10.9375,-1.83036 -3.88392,0.49107 -11.83035,0 -11.83035,0 l -8.34822,1.5625 -8.21428,2.58929 -5.66965,1.875 -6.78571,4.28571 -6.33929,4.0625 -5.53571,4.55357 -5.66964,5.35715 -3.83929,5.13393 -4.24107,6.07142 -3.39286,6.60715 -2.85714,7.41071 -2.41072,9.01786 -3.03571,8.66071 -2.90179,8.52679 -3.125,6.96428 -3.70535,8.57143 -4.10715,8.79465 -5.9375,11.42857 -4.64285,8.30357 -6.96429,12.05357 -6.96428,10.89286 -7.32143,9.95535 -7.94643,9.24108 -2.72322,3.16964 -6.07142,4.55357 -5.89286,3.52679 -7.90179,3.34821 -13.57143,4.91071 -15.08928,4.64286 -23.30357,5.3125 -11.33929,2.14286 -14.95536,2.72321 -14.24107,2.36607 -26.20535,2.5 -29.46429,1.20536 -27.76786,0.0893 -11.42857,-0.0893 -26.83036,0.13393 -25.40178,-1.47321 -13.97322,-1.29465 -27.00892,-3.52678 -15.13393,-3.08036 -22.90179,-5.58036 -15.53571,-5.625 -11.33929,-4.6875 -12.32143,-6.07143 -7.41071,-4.55357 -8.4375,-5.9375 -12.32143,-10.3125 -6.91964,-7.45535 -6.29465,-7.45536 -3.25893,-4.95536 -3.34821,-5.58036 -3.83929,-6.47321 -2.76785,-6.20536 -2.94643,-6.74107 -2.1875,-6.07143 -3.25893,-9.41964 -1.74107,-8.34821 -0.80357,-3.83929 0.13393,-2.41071 z"
       inkscape:connector-curvature="0"
       sodipodi:nodetypes="cccccccccccccccccccccccccccccccccccccccccccccccccccccccccccccccccccccccccccccccccccccscsccccccccccccccccccccccccccccccccccccccccccccccccccccccccccccccc" />
  </g>
  <g
     inkscape:groupmode="layer"
     id="layer2"
     inkscape:label="Ferris"
     style="display:inline">
    <g
       id="g10"
       transform="matrix(0.4499324,0,0,-0.4499324,137.39077,465.07913)">
      <g
         id="g12">
        <g
           id="g14"
           clip-path="url(#clipPath18)">
          <g
             id="g20"
             transform="translate(1009.3994,300.8408)">
            <path
               d="m 0,0 -12.072,25.006 c 0.063,0.947 0.111,1.898 0.111,2.853 0,28.346 -29.478,54.471 -79.069,75.389 l 0,-17.393 c -4.836,1.919 -9.871,3.787 -15.117,5.593 l 0,8.108 c -70.874,25.56 -176.383,41.778 -294.241,41.778 -102.973,0 -196.529,-12.38 -265.791,-32.554 l 0,-28.246 -0.002,0 0,34.188 c -70.96,-22.55 -114.954,-53.877 -114.954,-88.515 0,-5.46 1.101,-10.838 3.217,-16.113 l -7.228,-12.867 c 0,0 -5.792,-7.512 4.406,-23.362 8.994,-13.977 54.048,-68.685 77.827,-97.335 10.214,-14.687 17.141,-23.734 17.746,-22.859 0.955,1.386 -6.351,28.961 -26.635,60.423 -9.466,16.895 -20.768,39.283 -27.554,55.819 18.942,-11.99 130.23,-68.029 357.232,-67.801 231.994,0.232 335.115,72.851 346.433,82.737 -3.955,-15.889 -17.468,-48.033 -28.245,-70.638 -17.706,-32.331 -24.12,-60.478 -23.296,-61.87 0.524,-0.878 6.565,8.441 15.476,23.543 20.731,29.543 60.017,85.939 67.867,100.305 C 5.007,-7.526 0,0 0,0"
               style="fill:#a52b00;fill-opacity:1;fill-rule:nonzero;stroke:none"
               id="path22"
               inkscape:connector-curvature="0" />
          </g>
          <g
             id="g24"
             transform="translate(1079.4854,300.9805)">
            <path
               d="m 0,0 -79.343,58.446 c -0.745,2.6 -1.49,5.201 -2.26,7.781 l 26.062,37.754 c 2.66,3.84 3.196,8.832 1.469,13.211 -1.731,4.358 -5.515,7.482 -9.99,8.247 l -44.066,7.479 c -1.709,3.485 -3.498,6.916 -5.294,10.319 l 18.515,42.388 c 1.903,4.317 1.505,9.335 -1.022,13.254 -2.517,3.937 -6.786,6.237 -11.338,6.058 l -44.724,-1.625 c -2.315,3.016 -4.667,6.003 -7.067,8.937 l 10.278,45.432 c 1.042,4.612 -0.274,9.443 -3.487,12.794 -3.195,3.339 -7.838,4.722 -12.253,3.639 l -43.562,-10.709 c -2.82,2.493 -5.688,4.953 -8.588,7.365 l 1.567,46.641 c 0.168,4.721 -2.033,9.208 -5.812,11.829 -3.777,2.636 -8.57,3.032 -12.701,1.074 l -40.638,-19.321 c -3.273,1.878 -6.565,3.737 -9.892,5.537 l -7.181,45.961 c -0.729,4.656 -3.724,8.612 -7.919,10.418 -4.185,1.817 -8.976,1.228 -12.648,-1.536 l -36.232,-27.185 c -3.569,1.185 -7.153,2.32 -10.779,3.407 l -15.617,43.585 c -1.588,4.443 -5.25,7.706 -9.716,8.624 -4.45,0.909 -9.028,-0.632 -12.114,-4.08 l -30.499,-34.119 c -3.685,0.423 -7.377,0.81 -11.076,1.131 l -23.549,39.676 c -2.384,4.018 -6.597,6.464 -11.139,6.464 -4.529,0 -8.75,-2.446 -11.118,-6.464 l -23.555,-39.676 c -3.701,-0.321 -7.408,-0.708 -11.088,-1.131 l -30.499,34.119 c -3.09,3.448 -7.684,4.989 -12.122,4.08 -4.46,-0.93 -8.128,-4.181 -9.707,-8.624 l -15.629,-43.585 c -3.621,-1.087 -7.205,-2.23 -10.78,-3.407 l -36.22,27.185 c -3.683,2.774 -8.478,3.361 -12.668,1.536 -4.181,-1.806 -7.188,-5.762 -7.913,-10.418 L -661.1,316.53 c -3.322,-1.8 -6.614,-3.649 -9.895,-5.537 l -40.634,19.321 c -4.127,1.966 -8.945,1.562 -12.704,-1.074 -3.773,-2.621 -5.98,-7.108 -5.81,-11.829 l 1.562,-46.641 c -2.894,-2.412 -5.756,-4.872 -8.591,-7.365 l -43.554,10.709 c -4.423,1.074 -9.062,-0.3 -12.265,-3.639 -3.221,-3.351 -4.526,-8.182 -3.491,-12.794 l 10.257,-45.432 c -2.378,-2.945 -4.733,-5.921 -7.042,-8.937 l -44.724,1.625 c -4.513,0.135 -8.821,-2.121 -11.343,-6.058 -2.527,-3.919 -2.91,-8.937 -1.029,-13.254 l 18.528,-42.388 c -1.799,-3.403 -3.586,-6.834 -5.309,-10.319 l -44.063,-7.479 c -4.479,-0.754 -8.252,-3.876 -9.994,-8.247 -1.728,-4.379 -1.167,-9.371 1.474,-13.211 l 26.066,-37.754 c -0.201,-0.667 -0.387,-1.339 -0.587,-2.008 l -73.696,-78.285 c 0,0 -11.296,-8.851 5.147,-29.654 14.5,-18.351 88.951,-91.096 128.271,-129.205 16.606,-19.348 27.984,-31.329 29.172,-30.293 1.876,1.645 -7.972,36.847 -40.682,78.149 -25.216,37.056 -57.941,94.049 -50.267,100.618 0,0 8.729,11.081 26.242,19.057 0.641,-0.512 -0.662,0.507 0,0 0,0 369.595,-170.491 712.429,-2.884 39.164,7.025 62.873,-13.955 62.873,-13.955 8.176,-4.74 -12.996,-63.344 -30.407,-102.137 -23.679,-44.05 -27.151,-78.422 -25.144,-79.614 1.268,-0.757 9.883,12.353 22.172,33.217 C -67.814,-128.514 -10.492,-47.965 0,-28.399 11.895,-6.217 0,0 0,0"
               style="fill:#f74c00;fill-opacity:1;fill-rule:nonzero;stroke:none"
               id="path26"
               inkscape:connector-curvature="0" />
          </g>
          <g
             id="g28"
             transform="translate(917.8965,322.8555)">
            <path
               d="m 0,0 c 0,0 53.179,2.466 123.032,73.462 l 9.898,21.979 c 0,0 -108.417,107.848 60.118,182.291 0,0 -14.755,-24.112 -10.426,-117.272 0,0 50.815,17.649 65.714,99.94 0,0 74.12,-97.724 -80.502,-189.377 0,0 -72.54,-116.289 -174.805,-105.15 z"
               style="fill:#f74c00;fill-opacity:1;fill-rule:nonzero;stroke:none"
               id="path30"
               inkscape:connector-curvature="0" />
          </g>
          <g
             id="g32"
             transform="translate(676.9971,389.8311)">
            <path
               d="m 0,0 c 0,0 36.935,40.443 73.871,0 0,0 29.022,-53.927 0,-80.887 0,0 -47.487,-37.748 -73.871,0 0,0 -31.658,29.659 0,80.887"
               style="fill:#000000;fill-opacity:1;fill-rule:nonzero;stroke:none"
               id="path34"
               inkscape:connector-curvature="0" />
          </g>
          <g
             id="g36"
             transform="translate(719.7607,374.8271)">
            <path
               d="m 22.225561,-17.780449 c 0,-15.745999 -9.282,-28.513999 -20.7320004,-28.513999 -11.4480004,0 -20.7300006,12.768 -20.7300006,28.513999 0,15.7500004 9.2820002,28.518001 20.7300006,28.518001 11.4500004,0 20.7320004,-12.7680006 20.7320004,-28.518001"
               style="fill:#ffffff;fill-opacity:1;fill-rule:nonzero;stroke:none"
               id="path38"
               inkscape:connector-curvature="0" />
          </g>
          <g
             id="g40"
             transform="translate(512.1484,400.8735)">
            <path
               d="m 0,0 c 0,0 63.355,28.052 80.648,-34.562 0,0 18.114,-72.98 -52.03,-77.099 0,0 -89.444,17.228 -28.618,111.661"
               style="fill:#000000;fill-opacity:1;fill-rule:nonzero;stroke:none"
               id="path42"
               inkscape:connector-curvature="0" />
          </g>
          <g
             id="g44"
             transform="translate(543.9678,373.7939)">
            <path
               d="m 22.225561,-17.780449 c 0,-16.238999 -9.572,-29.408999 -21.3810004,-29.408999 -11.8040006,0 -21.3790006,13.17 -21.3790006,29.408999 0,16.2440004 9.575,29.411001 21.3790006,29.411001 11.8090004,0 21.3810004,-13.1670006 21.3810004,-29.411001"
               style="fill:#ffffff;fill-opacity:1;fill-rule:nonzero;stroke:none"
               id="path46"
               inkscape:connector-curvature="0" />
          </g>
          <g
             id="g48"
             transform="translate(593.3169,263.6973)">
            <path
               d="m 0,0 80.796,6.484 c 0,0 -2.738,-13.006 -13.279,-22.769 0,0 -27.79,-30.47 -59.673,2.533 0,0 -5.217,5.629 -7.844,13.752"
               style="fill:#000000;fill-opacity:1;fill-rule:nonzero;stroke:none"
               id="path50"
               inkscape:connector-curvature="0" />
          </g>
          <g
             id="g52"
             transform="translate(269.7959,338.4814)">
            <path
               d="m 0,0 c -0.667,0 -1.321,-0.049 -1.973,-0.101 -26.234,5.971 -99.973,25.185 -119.464,56.363 0,0 99.227,112.872 -55.86,185.019 l 18.057,-124.878 c 0,0 -47.809,31.949 -58.126,101.346 0,0 -116.423,-84.494 51.384,-165.474 0,0 15.22,-57.187 161.349,-102.815 l 0.107,0.435 c 1.471,-0.272 2.977,-0.435 4.526,-0.435 13.808,0 25.003,11.312 25.003,25.271 C 25.003,-11.313 13.808,0 0,0"
               style="fill:#f74c00;fill-opacity:1;fill-rule:nonzero;stroke:none"
               id="path54"
               inkscape:connector-curvature="0" />
          </g>
        </g>
      </g>
    </g>
  </g>
  <g
     inkscape:groupmode="layer"
     id="layer5"
     inkscape:label="Ferris_LegCover">
    <path
       style="fill:#2e7d32;fill-opacity:1;fill-rule:evenodd;stroke:none;stroke-width:1px;stroke-linecap:butt;stroke-linejoin:miter;stroke-opacity:1"
       d="m 551.52857,391.44273 6.18719,3.53553 -13.25826,22.27387 -4.77297,-1.41422 z"
       id="path4313"
       inkscape:path-effect="#path-effect4315"
       inkscape:original-d="m 551.52857,391.44273 6.18719,3.53553 -13.25826,22.27387 -4.77297,-1.41422 z"
       inkscape:connector-curvature="0" />
    <path
       style="fill:#3e2723;fill-opacity:1;fill-rule:evenodd;stroke:none;stroke-width:1px;stroke-linecap:butt;stroke-linejoin:miter;stroke-opacity:1"
       d="m 557.33447,394.7144 -7.47953,-4.11764 2.96414,-3.78553 6.98268,4.33103 z"
       id="path4317"
       inkscape:path-effect="#path-effect4319"
       inkscape:original-d="m 557.33447,394.7144 -7.47953,-4.11764 2.96414,-3.78553 6.98268,4.33103 z"
       inkscape:connector-curvature="0"
       sodipodi:nodetypes="ccccc" />
    <path
       style="fill:#2e7c32;fill-opacity:1;fill-rule:evenodd;stroke:none;stroke-width:1px;stroke-linecap:butt;stroke-linejoin:miter;stroke-opacity:1"
       d="M 269.94302,404.01484 282.875,421.25 l 4.875,-2.5 -11.54062,-17.98624 c -0.67682,0.32284 -1.35082,0.6516 -2.02188,0.98624 -1.20102,0.59892 -2.39292,1.21679 -3.5625,1.875 -0.22819,0.12842 -0.45553,0.25837 -0.68198,0.38984 z"
       id="path4321"
       inkscape:path-effect="#path-effect4323"
       inkscape:original-d="M 269.94302,404.01484 282.875,421.25 l 4.875,-2.5 -11.54062,-17.98624 -2.02188,0.98624 -3.5625,1.875 z"
       inkscape:connector-curvature="0"
       sodipodi:nodetypes="ccccccc" />
    <path
       style="fill:#3e2723;fill-opacity:1;fill-rule:evenodd;stroke:none;stroke-width:1px;stroke-linecap:butt;stroke-linejoin:miter;stroke-opacity:1"
       d="m 286.27742,390.90489 -3.52621,1.27036 -4.36222,2.16161 2.83915,4.24892 6.22508,-3.25964 z"
       id="path4325"
       inkscape:path-effect="#path-effect4327"
       inkscape:original-d="m 286.27742,390.90489 -3.52621,1.27036 -4.36222,2.16161 2.83915,4.24892 6.22508,-3.25964 z"
       inkscape:connector-curvature="0"
       sodipodi:nodetypes="cccccc" />
  </g>
  <g
     inkscape:groupmode="layer"
     id="layer4"
     inkscape:label="Face"
     style="display:inline">
    <path
       d="m 917.19004,463.69362 c 0,0 16.61825,-18.19661 33.23695,0 0,0 13.05794,24.26351 0,36.39369 0,0 -21.36593,16.98404 -33.23695,0 0,0 -14.24396,-13.34455 0,-36.39369"
       style="display:inline;fill:#000000;fill-opacity:1;fill-rule:nonzero;stroke:none"
       id="path34-9"
       inkscape:connector-curvature="0" />
    <path
       d="m 936.43077,474.4444 c 0,7.08464 -4.17627,12.82938 -9.328,12.82938 -5.15082,0 -9.3271,-5.74474 -9.3271,-12.82938 0,-7.08643 4.17628,-12.83117 9.3271,-12.83117 5.15173,0 9.328,5.74474 9.328,12.83117"
       style="display:inline;fill:#ffffff;fill-opacity:1;fill-rule:nonzero;stroke:none"
       id="path38-1"
       inkscape:connector-curvature="0" />
    <path
       d="m 817.01927,446.72528 c 0,0 28.50547,-12.6215 36.28615,15.55057 0,0 8.15007,32.83606 -23.40998,34.68934 0,0 -40.24376,-7.75144 -12.87617,-50.23991"
       style="display:inline;fill:#000000;fill-opacity:1;fill-rule:nonzero;stroke:none"
       id="path42-2"
       inkscape:connector-curvature="0" />
    <path
       d="m 831.33585,462.90927 c 0,7.30646 -4.30675,13.23207 -9.62,13.23207 -5.31101,0 -9.61911,-5.92561 -9.61911,-13.23207 0,-7.3087 4.3081,-13.23296 9.61911,-13.23296 5.31325,0 9.62,5.92426 9.62,13.23296"
       style="display:inline;fill:#ffffff;fill-opacity:1;fill-rule:nonzero;stroke:none"
       id="path46-7"
       inkscape:connector-curvature="0" />
    <path
       d="m 873.97697,529.23136 65.52154,4.06707 c 0,0 -3.02982,12.04277 -27.77768,18.39515 0,0 -57.30069,5.63017 -82.47375,-7.92139 0,0 -11.46062,-5.16928 -17.70765,-19.66899"
       style="display:inline;fill:#000000;fill-opacity:1;fill-rule:nonzero;stroke:none"
       id="path50-0"
       inkscape:connector-curvature="0"
       sodipodi:nodetypes="ccccc" />
    <path
       style="fill:#000000;fill-opacity:1;fill-rule:evenodd;stroke:#000000;stroke-width:2;stroke-linecap:round;stroke-linejoin:round;stroke-miterlimit:4;stroke-dasharray:none;stroke-opacity:1"
       d="m 916.73376,443.8972 7.25362,-1.52039 4.65434,-0.54029 5.5569,0.064 4.25727,0.55395 c 2.02091,0.4307 4.03673,0.88529 6.0469,1.36363 3.26086,0.77596 6.50712,1.61451 9.72892,2.53936 2.82464,0.81084 5.63026,1.68796 8.41377,2.63039 l 5.48715,2.38436 -6.85069,-4.56919 -3.34303,-1.70836 c -2.34145,-0.83227 -4.70345,-1.60672 -7.08313,-2.32241 -2.97578,-0.89496 -5.9792,-1.69802 -9.00453,-2.40764 -1.9895,-0.16165 -3.98002,-0.31082 -5.9714,-0.44748 -2.98878,-0.20511 -5.97949,-0.38206 -8.97161,-0.53082 -3.15538,-0.0353 -6.31238,0.0739 -9.45777,0.32723 -0.95673,0.077 -1.91238,0.16743 -2.86659,0.2711 l 2.14988,3.91254 z"
       id="path4267"
       inkscape:path-effect="#path-effect4269"
       inkscape:original-d="m 916.73376,443.8972 7.25362,-1.52039 4.65434,-0.54029 5.5569,0.064 4.25727,0.55395 6.0469,1.36363 9.72892,2.53936 8.41377,2.63039 5.48715,2.38436 -6.85069,-4.56919 -3.34303,-1.70836 -7.08313,-2.32241 -9.00453,-2.40764 -5.9714,-0.44748 -8.97161,-0.53082 -9.45777,0.32723 -2.86659,0.2711 c 0.33439,1.37933 -1.24934,4.92574 2.14988,3.91254 z"
       inkscape:connector-curvature="0"
       sodipodi:nodetypes="cccccccccccccccccc" />
    <path
       style="display:inline;fill:#000000;fill-opacity:1;fill-rule:evenodd;stroke:#000000;stroke-width:2.01106858;stroke-linecap:round;stroke-linejoin:round;stroke-miterlimit:4;stroke-dasharray:none;stroke-opacity:1"
       d="m 858.32304,434.72953 -7.62052,-2.83039 -4.93053,-1.41235 -5.95309,-1.02855 -4.60817,-0.31955 c -2.2,0.004 -4.39997,0.0309 -6.5994,0.0811 -3.55257,0.0811 -7.10402,0.22272 -10.65018,0.45086 -3.08885,0.19872 -6.17349,0.46307 -9.25111,0.79283 l -6.09603,1.1375 7.76005,-2.89725 3.73795,-0.93021 c 2.59327,-0.31384 5.19355,-0.56979 7.79825,-0.7676 3.28223,-0.24926 6.57147,-0.40618 9.86252,-0.47052 2.14558,0.2397 4.28986,0.49101 6.43271,0.75393 3.22048,0.39514 6.43774,0.81649 9.65136,1.264 3.38994,0.58755 6.75708,1.30664 10.0913,2.15511 1.01733,0.25888 2.03159,0.5298 3.0425,0.81269 l -2.66761,3.20841 z"
       id="path4267-3"
       inkscape:path-effect="#path-effect4269-9"
       inkscape:original-d="m 858.32304,434.72953 -7.62052,-2.83039 -4.93053,-1.41235 -5.95309,-1.02855 -4.60817,-0.31955 -6.5994,0.0811 -10.65018,0.45086 -9.25111,0.79283 -6.09603,1.1375 7.76005,-2.89725 3.73795,-0.93021 7.79825,-0.7676 9.86252,-0.47052 6.43271,0.75393 9.65136,1.264 10.0913,2.15511 3.0425,0.81269 c -0.48726,1.21398 0.87526,4.81369 -2.66761,3.20841 z"
       inkscape:connector-curvature="0"
       sodipodi:nodetypes="cccccccccccccccccc" />
  </g>
</svg>
