<svg viewBox="0 0 1260 708" xmlns="http://www.w3.org/2000/svg">
<rect fill="rgba(250,190,190,1)" height="100%" width="100%"/>
<polygon fill="rgba(230,25,75,1)" points="630,354 630,154 830,154 830,354 630,354 "/>
<line stroke="rgba(0,0,0,1)" stroke-width="2px" x1="630" x2="630" y1="354" y2="154"/>
<line stroke="rgba(0,0,0,1)" stroke-width="2px" x1="630" x2="830" y1="154" y2="154"/>
<line stroke="rgba(0,0,0,1)" stroke-width="2px" x1="830" x2="830" y1="154" y2="354"/>
<line stroke="rgba(0,0,0,1)" stroke-width="2px" x1="830" x2="630" y1="354" y2="354"/>
<polygon fill="rgba(255,255,255,0.9814814814814816)" points="630,354 664.729635533386,157.03844939755837 861.6911861358276,191.76808493094444 826.9615506024415,388.72963553338604 630,354 "/>
<line stroke="rgba(0,0,0,1)" stroke-width="2px" x1="630" x2="664.729635533386" y1="354" y2="157.03844939755837"/>
<line stroke="rgba(0,0,0,1)" stroke-width="2px" x1="664.729635533386" x2="861.6911861358276" y1="157.03844939755837" y2="191.76808493094444"/>
<line stroke="rgba(0,0,0,1)" stroke-width="2px" x1="861.6911861358276" x2="826.9615506024415" y1="191.76808493094444" y2="388.72963553338604"/>
<line stroke="rgba(0,0,0,1)" stroke-width="2px" x1="826.9615506024415" x2="630" y1="388.72963553338604" y2="354"/>
<polygon fill="rgba(230,25,75,0.962962962962963)" points="630,354 698.4040286651338,166.0614758428183 886.3425528223154,234.46550450795203 817.9385241571817,422.40402866513375 630,354.00000000000006 "/>
<line stroke="rgba(0,0,0,1)" stroke-width="2px" x1="630" x2="698.4040286651338" y1="354" y2="166.0614758428183"/>
<line stroke="rgba(0,0,0,1)" stroke-width="2px" x1="698.4040286651338" x2="886.3425528223154" y1="166.0614758428183" y2="234.46550450795203"/>
<line stroke="rgba(0,0,0,1)" stroke-width="2px" x1="886.3425528223154" x2="817.9385241571817" y1="234.46550450795203" y2="422.40402866513375"/>
<line stroke="rgba(0,0,0,1)" stroke-width="2px" x1="817.9385241571817" x2="630" y1="422.40402866513375" y2="354.00000000000006"/>
<polygon fill="rgba(255,255,255,0.9444444444444444)" points="630,354.00000000000006 730,180.79491924311228 903.2050807568877,280.7949192431122 803.2050807568878,453.99999999999994 630,354.00000000000006 "/>
<line stroke="rgba(0,0,0,1)" stroke-width="2px" x1="630" x2="730" y1="354.00000000000006" y2="180.79491924311228"/>
<line stroke="rgba(0,0,0,1)" stroke-width="2px" x1="730" x2="903.2050807568877" y1="180.79491924311228" y2="280.7949192431122"/>
<line stroke="rgba(0,0,0,1)" stroke-width="2px" x1="903.2050807568877" x2="803.2050807568878" y1="280.7949192431122" y2="453.99999999999994"/>
<line stroke="rgba(0,0,0,1)" stroke-width="2px" x1="803.2050807568878" x2="630" y1="453.99999999999994" y2="354.00000000000006"/>
<polygon fill="rgba(230,25,75,0.925925925925926)" points="630,354.00000000000006 758.5575219373078,200.79111137620436 911.7664105611035,329.34863331351215 783.2088886237957,482.55752193730785 630,354.0000000000001 "/>
<line stroke="rgba(0,0,0,1)" stroke-width="2px" x1="630" x2="758.5575219373078" y1="354.00000000000006" y2="200.79111137620436"/>
<line stroke="rgba(0,0,0,1)" stroke-width="2px" x1="758.5575219373078" x2="911.7664105611035" y1="200.79111137620436" y2="329.34863331351215"/>
<line stroke="rgba(0,0,0,1)" stroke-width="2px" x1="911.7664105611035" x2="783.2088886237957" y1="329.34863331351215" y2="482.55752193730785"/>
<line stroke="rgba(0,0,0,1)" stroke-width="2px" x1="783.2088886237957" x2="630" y1="482.55752193730785" y2="354.0000000000001"/>
<polygon fill="rgba(255,255,255,0.9074074074074074)" points="630,354.0000000000001 783.2088886237955,225.4424780626921 911.7664105611035,378.65136668648756 758.557521937308,507.2088886237956 630,354.0000000000001 "/>
<line stroke="rgba(0,0,0,1)" stroke-width="2px" x1="630" x2="783.2088886237955" y1="354.0000000000001" y2="225.4424780626921"/>
<line stroke="rgba(0,0,0,1)" stroke-width="2px" x1="783.2088886237955" x2="911.7664105611035" y1="225.4424780626921" y2="378.65136668648756"/>
<line stroke="rgba(0,0,0,1)" stroke-width="2px" x1="911.7664105611035" x2="758.557521937308" y1="378.65136668648756" y2="507.2088886237956"/>
<line stroke="rgba(0,0,0,1)" stroke-width="2px" x1="758.557521937308" x2="630" y1="507.2088886237956" y2="354.0000000000001"/>
<polygon fill="rgba(230,25,75,0.8888888888888888)" points="630,354.0000000000001 803.2050807568876,253.99999999999991 903.2050807568878,427.2050807568876 730.0000000000001,527.2050807568877 630,354.0000000000001 "/>
<line stroke="rgba(0,0,0,1)" stroke-width="2px" x1="630" x2="803.2050807568876" y1="354.0000000000001" y2="253.99999999999991"/>
<line stroke="rgba(0,0,0,1)" stroke-width="2px" x1="803.2050807568876" x2="903.2050807568878" y1="253.99999999999991" y2="427.2050807568876"/>
<line stroke="rgba(0,0,0,1)" stroke-width="2px" x1="903.2050807568878" x2="730.0000000000001" y1="427.2050807568876" y2="527.2050807568877"/>
<line stroke="rgba(0,0,0,1)" stroke-width="2px" x1="730.0000000000001" x2="630" y1="527.2050807568877" y2="354.0000000000001"/>
<polygon fill="rgba(255,255,255,0.8703703703703703)" points="630,354.0000000000001 817.9385241571816,285.59597133486614 886.3425528223156,473.53449549204777 698.404028665134,541.9385241571817 629.9999999999999,354.00000000000017 "/>
<line stroke="rgba(0,0,0,1)" stroke-width="2px" x1="630" x2="817.9385241571816" y1="354.0000000000001" y2="285.59597133486614"/>
<line stroke="rgba(0,0,0,1)" stroke-width="2px" x1="817.9385241571816" x2="886.3425528223156" y1="285.59597133486614" y2="473.53449549204777"/>
<line stroke="rgba(0,0,0,1)" stroke-width="2px" x1="886.3425528223156" x2="698.404028665134" y1="473.53449549204777" y2="541.9385241571817"/>
<line stroke="rgba(0,0,0,1)" stroke-width="2px" x1="698.404028665134" x2="629.9999999999999" y1="541.9385241571817" y2="354.00000000000017"/>
<polygon fill="rgba(230,25,75,0.8518518518518519)" points="629.9999999999999,354.00000000000017 826.9615506024414,319.2703644666138 861.6911861358278,516.2319150690553 664.7296355333863,550.9615506024417 629.9999999999999,354.00000000000017 "/>
<line stroke="rgba(0,0,0,1)" stroke-width="2px" x1="629.9999999999999" x2="826.9615506024414" y1="354.00000000000017" y2="319.2703644666138"/>
<line stroke="rgba(0,0,0,1)" stroke-width="2px" x1="826.9615506024414" x2="861.6911861358278" y1="319.2703644666138" y2="516.2319150690553"/>
<line stroke="rgba(0,0,0,1)" stroke-width="2px" x1="861.6911861358278" x2="664.7296355333863" y1="516.2319150690553" y2="550.9615506024417"/>
<line stroke="rgba(0,0,0,1)" stroke-width="2px" x1="664.7296355333863" x2="629.9999999999999" y1="550.9615506024417" y2="354.00000000000017"/>
<polygon fill="rgba(255,255,255,0.8333333333333334)" points="629.9999999999999,354.00000000000017 829.9999999999998,353.99999999999983 829.9999999999998,353.99999999999983 830.0000000000002,553.9999999999998 630.0000000000002,554.0000000000002 629.9999999999998,354.00000000000017 "/>
<line stroke="rgba(0,0,0,1)" stroke-width="2px" x1="629.9999999999999" x2="829.9999999999998" y1="354.00000000000017" y2="353.99999999999983"/>
<line stroke="rgba(0,0,0,1)" stroke-width="2px" x1="829.9999999999998" x2="830.0000000000002" y1="353.99999999999983" y2="553.9999999999998"/>
<line stroke="rgba(0,0,0,1)" stroke-width="2px" x1="830.0000000000002" x2="630.0000000000002" y1="553.9999999999998" y2="554.0000000000002"/>
<line stroke="rgba(0,0,0,1)" stroke-width="2px" x1="630.0000000000002" x2="629.9999999999998" y1="554.0000000000002" y2="354.00000000000017"/>
<polygon fill="rgba(230,25,75,0.8148148148148149)" points="629.9999999999998,354.00000000000017 826.9615506024415,388.7296355333859 792.2319150690557,585.6911861358276 595.2703644666142,550.9615506024418 629.9999999999998,354.00000000000017 "/>
<line stroke="rgba(0,0,0,1)" stroke-width="2px" x1="629.9999999999998" x2="826.9615506024415" y1="354.00000000000017" y2="388.7296355333859"/>
<line stroke="rgba(0,0,0,1)" stroke-width="2px" x1="826.9615506024415" x2="792.2319150690557" y1="388.7296355333859" y2="585.6911861358276"/>
<line stroke="rgba(0,0,0,1)" stroke-width="2px" x1="792.2319150690557" x2="595.2703644666142" y1="585.6911861358276" y2="550.9615506024418"/>
<line stroke="rgba(0,0,0,1)" stroke-width="2px" x1="595.2703644666142" x2="629.9999999999998" y1="550.9615506024418" y2="354.00000000000017"/>
<polygon fill="rgba(255,255,255,0.7962962962962963)" points="629.9999999999998,354.00000000000017 817.9385241571817,422.4040286651335 749.5344954920483,610.3425528223154 561.5959713348665,541.938524157182 629.9999999999998,354.0000000000002 "/>
<line stroke="rgba(0,0,0,1)" stroke-width="2px" x1="629.9999999999998" x2="817.9385241571817" y1="354.00000000000017" y2="422.4040286651335"/>
<line stroke="rgba(0,0,0,1)" stroke-width="2px" x1="817.9385241571817" x2="749.5344954920483" y1="422.4040286651335" y2="610.3425528223154"/>
<line stroke="rgba(0,0,0,1)" stroke-width="2px" x1="749.5344954920483" x2="561.5959713348665" y1="610.3425528223154" y2="541.938524157182"/>
<line stroke="rgba(0,0,0,1)" stroke-width="2px" x1="561.5959713348665" x2="629.9999999999998" y1="541.938524157182" y2="354.0000000000002"/>
<polygon fill="rgba(230,25,75,0.7777777777777778)" points="629.9999999999998,354.0000000000002 803.2050807568878,453.99999999999983 703.2050807568882,627.2050807568878 530.0000000000002,527.2050807568883 629.9999999999998,354.0000000000003 "/>
<line stroke="rgba(0,0,0,1)" stroke-width="2px" x1="629.9999999999998" x2="803.2050807568878" y1="354.0000000000002" y2="453.99999999999983"/>
<line stroke="rgba(0,0,0,1)" stroke-width="2px" x1="803.2050807568878" x2="703.2050807568882" y1="453.99999999999983" y2="627.2050807568878"/>
<line stroke="rgba(0,0,0,1)" stroke-width="2px" x1="703.2050807568882" x2="530.0000000000002" y1="627.2050807568878" y2="527.2050807568883"/>
<line stroke="rgba(0,0,0,1)" stroke-width="2px" x1="530.0000000000002" x2="629.9999999999998" y1="527.2050807568883" y2="354.0000000000003"/>
<polygon fill="rgba(255,255,255,0.7592592592592593)" points="629.9999999999998,354.0000000000003 783.2088886237957,482.55752193730774 654.6513666864882,635.7664105611036 501.4424780626923,507.20888862379616 629.9999999999998,354.0000000000002 "/>
<line stroke="rgba(0,0,0,1)" stroke-width="2px" x1="629.9999999999998" x2="783.2088886237957" y1="354.0000000000003" y2="482.55752193730774"/>
<line stroke="rgba(0,0,0,1)" stroke-width="2px" x1="783.2088886237957" x2="654.6513666864882" y1="482.55752193730774" y2="635.7664105611036"/>
<line stroke="rgba(0,0,0,1)" stroke-width="2px" x1="654.6513666864882" x2="501.4424780626923" y1="635.7664105611036" y2="507.20888862379616"/>
<line stroke="rgba(0,0,0,1)" stroke-width="2px" x1="501.4424780626923" x2="629.9999999999998" y1="507.20888862379616" y2="354.0000000000002"/>
<polygon fill="rgba(230,25,75,0.7407407407407407)" points="629.9999999999998,354.0000000000002 758.557521937308,507.2088886237955 605.3486333135129,635.7664105611038 476.7911113762045,482.55752193730865 629.9999999999997,354.0000000000003 "/>
<line stroke="rgba(0,0,0,1)" stroke-width="2px" x1="629.9999999999998" x2="758.557521937308" y1="354.0000000000002" y2="507.2088886237955"/>
<line stroke="rgba(0,0,0,1)" stroke-width="2px" x1="758.557521937308" x2="605.3486333135129" y1="507.2088886237955" y2="635.7664105611038"/>
<line stroke="rgba(0,0,0,1)" stroke-width="2px" x1="605.3486333135129" x2="476.7911113762045" y1="635.7664105611038" y2="482.55752193730865"/>
<line stroke="rgba(0,0,0,1)" stroke-width="2px" x1="476.7911113762045" x2="629.9999999999997" y1="482.55752193730865" y2="354.0000000000003"/>
<polygon fill="rgba(255,255,255,0.7222222222222222)" points="629.9999999999997,354.0000000000003 730.0000000000001,527.2050807568877 556.7949192431128,627.2050807568883 456.79491924311225,454.00000000000074 629.9999999999997,354.0000000000002 "/>
<line stroke="rgba(0,0,0,1)" stroke-width="2px" x1="629.9999999999997" x2="730.0000000000001" y1="354.0000000000003" y2="527.2050807568877"/>
<line stroke="rgba(0,0,0,1)" stroke-width="2px" x1="730.0000000000001" x2="556.7949192431128" y1="527.2050807568877" y2="627.2050807568883"/>
<line stroke="rgba(0,0,0,1)" stroke-width="2px" x1="556.7949192431128" x2="456.79491924311225" y1="627.2050807568883" y2="454.00000000000074"/>
<line stroke="rgba(0,0,0,1)" stroke-width="2px" x1="456.79491924311225" x2="629.9999999999997" y1="454.00000000000074" y2="354.0000000000002"/>
<polygon fill="rgba(230,25,75,0.7037037037037037)" points="629.9999999999997,354.0000000000002 698.404028665134,541.9385241571817 510.4655045079525,610.3425528223161 442.0614758428182,422.4040286651346 629.9999999999997,354.0000000000003 "/>
<line stroke="rgba(0,0,0,1)" stroke-width="2px" x1="629.9999999999997" x2="698.404028665134" y1="354.0000000000002" y2="541.9385241571817"/>
<line stroke="rgba(0,0,0,1)" stroke-width="2px" x1="698.404028665134" x2="510.4655045079525" y1="541.9385241571817" y2="610.3425528223161"/>
<line stroke="rgba(0,0,0,1)" stroke-width="2px" x1="510.4655045079525" x2="442.0614758428182" y1="610.3425528223161" y2="422.4040286651346"/>
<line stroke="rgba(0,0,0,1)" stroke-width="2px" x1="442.0614758428182" x2="629.9999999999997" y1="422.4040286651346" y2="354.0000000000003"/>
<polygon fill="rgba(255,255,255,0.6851851851851851)" points="629.9999999999997,354.0000000000003 664.7296355333864,550.9615506024418 467.76808493094484,585.6911861358285 433.03844939755817,388.72963553338695 629.9999999999997,354.0000000000002 "/>
<line stroke="rgba(0,0,0,1)" stroke-width="2px" x1="629.9999999999997" x2="664.7296355333864" y1="354.0000000000003" y2="550.9615506024418"/>
<line stroke="rgba(0,0,0,1)" stroke-width="2px" x1="664.7296355333864" x2="467.76808493094484" y1="550.9615506024418" y2="585.6911861358285"/>
<line stroke="rgba(0,0,0,1)" stroke-width="2px" x1="467.76808493094484" x2="433.03844939755817" y1="585.6911861358285" y2="388.72963553338695"/>
<line stroke="rgba(0,0,0,1)" stroke-width="2px" x1="433.03844939755817" x2="629.9999999999997" y1="388.72963553338695" y2="354.0000000000002"/>
<polygon fill="rgba(230,25,75,0.6666666666666667)" points="629.9999999999997,354.0000000000002 630.0000000000003,554.0000000000002 430.00000000000034,554.0000000000009 429.9999999999996,354.0000000000009 629.9999999999995,354.0000000000002 "/>
<line stroke="rgba(0,0,0,1)" stroke-width="2px" x1="629.9999999999997" x2="630.0000000000003" y1="354.0000000000002" y2="554.0000000000002"/>
<line stroke="rgba(0,0,0,1)" stroke-width="2px" x1="630.0000000000003" x2="430.00000000000034" y1="554.0000000000002" y2="554.0000000000009"/>
<line stroke="rgba(0,0,0,1)" stroke-width="2px" x1="430.00000000000034" x2="429.9999999999996" y1="554.0000000000009" y2="354.0000000000009"/>
<line stroke="rgba(0,0,0,1)" stroke-width="2px" x1="429.9999999999996" x2="629.9999999999995" y1="354.0000000000009" y2="354.0000000000002"/>
<polygon fill="rgba(255,255,255,0.6481481481481481)" points="629.9999999999995,354.0000000000002 595.2703644666142,550.961550602442 398.3088138641725,516.2319150690566 433.0384493975578,319.27036446661486 629.9999999999995,354.0000000000002 "/>
<line stroke="rgba(0,0,0,1)" stroke-width="2px" x1="629.9999999999995" x2="595.2703644666142" y1="354.0000000000002" y2="550.961550602442"/>
<line stroke="rgba(0,0,0,1)" stroke-width="2px" x1="595.2703644666142" x2="398.3088138641725" y1="550.961550602442" y2="516.2319150690566"/>
<line stroke="rgba(0,0,0,1)" stroke-width="2px" x1="398.3088138641725" x2="433.0384493975578" y1="516.2319150690566" y2="319.27036446661486"/>
<line stroke="rgba(0,0,0,1)" stroke-width="2px" x1="433.0384493975578" x2="629.9999999999995" y1="319.27036446661486" y2="354.0000000000002"/>
<polygon fill="rgba(230,25,75,0.6296296296296297)" points="629.9999999999995,354.0000000000002 561.5959713348666,541.9385241571822 373.6574471776846,473.53449549204913 442.06147584281763,285.5959713348672 629.9999999999995,354.0000000000003 "/>
<line stroke="rgba(0,0,0,1)" stroke-width="2px" x1="629.9999999999995" x2="561.5959713348666" y1="354.0000000000002" y2="541.9385241571822"/>
<line stroke="rgba(0,0,0,1)" stroke-width="2px" x1="561.5959713348666" x2="373.6574471776846" y1="541.9385241571822" y2="473.53449549204913"/>
<line stroke="rgba(0,0,0,1)" stroke-width="2px" x1="373.6574471776846" x2="442.06147584281763" y1="473.53449549204913" y2="285.5959713348672"/>
<line stroke="rgba(0,0,0,1)" stroke-width="2px" x1="442.06147584281763" x2="629.9999999999995" y1="285.5959713348672" y2="354.0000000000003"/>
<polygon fill="rgba(255,255,255,0.6111111111111112)" points="629.9999999999995,354.0000000000003 530.0000000000002,527.2050807568884 356.7949192431121,427.20508075688906 456.79491924311134,254.0000000000009 629.9999999999994,354.0000000000002 "/>
<line stroke="rgba(0,0,0,1)" stroke-width="2px" x1="629.9999999999995" x2="530.0000000000002" y1="354.0000000000003" y2="527.2050807568884"/>
<line stroke="rgba(0,0,0,1)" stroke-width="2px" x1="530.0000000000002" x2="356.7949192431121" y1="527.2050807568884" y2="427.20508075688906"/>
<line stroke="rgba(0,0,0,1)" stroke-width="2px" x1="356.7949192431121" x2="456.79491924311134" y1="427.20508075688906" y2="254.0000000000009"/>
<line stroke="rgba(0,0,0,1)" stroke-width="2px" x1="456.79491924311134" x2="629.9999999999994" y1="254.0000000000009" y2="354.0000000000002"/>
<polygon fill="rgba(230,25,75,0.5925925925925926)" points="629.9999999999994,354.0000000000002 501.4424780626922,507.2088886237964 348.23358943889605,378.65136668648915 476.7911113762033,225.44247806269303 629.9999999999993,354.0000000000003 "/>
<line stroke="rgba(0,0,0,1)" stroke-width="2px" x1="629.9999999999994" x2="501.4424780626922" y1="354.0000000000002" y2="507.2088886237964"/>
<line stroke="rgba(0,0,0,1)" stroke-width="2px" x1="501.4424780626922" x2="348.23358943889605" y1="507.2088886237964" y2="378.65136668648915"/>
<line stroke="rgba(0,0,0,1)" stroke-width="2px" x1="348.23358943889605" x2="476.7911113762033" y1="378.65136668648915" y2="225.44247806269303"/>
<line stroke="rgba(0,0,0,1)" stroke-width="2px" x1="476.7911113762033" x2="629.9999999999993" y1="225.44247806269303" y2="354.0000000000003"/>
<polygon fill="rgba(255,255,255,0.5740740740740741)" points="629.9999999999993,354.0000000000003 476.7911113762043,482.5575219373088 348.2335894388958,329.3486333135138 501.44247806269084,200.7911113762052 629.9999999999993,354.0000000000003 "/>
<line stroke="rgba(0,0,0,1)" stroke-width="2px" x1="629.9999999999993" x2="476.7911113762043" y1="354.0000000000003" y2="482.5575219373088"/>
<line stroke="rgba(0,0,0,1)" stroke-width="2px" x1="476.7911113762043" x2="348.2335894388958" y1="482.5575219373088" y2="329.3486333135138"/>
<line stroke="rgba(0,0,0,1)" stroke-width="2px" x1="348.2335894388958" x2="501.44247806269084" y1="329.3486333135138" y2="200.7911113762052"/>
<line stroke="rgba(0,0,0,1)" stroke-width="2px" x1="501.44247806269084" x2="629.9999999999993" y1="200.7911113762052" y2="354.0000000000003"/>
<polygon fill="rgba(230,25,75,0.5555555555555556)" points="629.9999999999993,354.0000000000003 456.7949192431121,454.000000000001 356.7949192431113,280.7949192431138 529.9999999999985,180.794919243113 629.9999999999993,354.0000000000003 "/>
<line stroke="rgba(0,0,0,1)" stroke-width="2px" x1="629.9999999999993" x2="456.7949192431121" y1="354.0000000000003" y2="454.000000000001"/>
<line stroke="rgba(0,0,0,1)" stroke-width="2px" x1="456.7949192431121" x2="356.7949192431113" y1="454.000000000001" y2="280.7949192431138"/>
<line stroke="rgba(0,0,0,1)" stroke-width="2px" x1="356.7949192431113" x2="529.9999999999985" y1="280.7949192431138" y2="180.794919243113"/>
<line stroke="rgba(0,0,0,1)" stroke-width="2px" x1="529.9999999999985" x2="629.9999999999993" y1="180.794919243113" y2="354.0000000000003"/>
<polygon fill="rgba(255,255,255,0.537037037037037)" points="629.9999999999993,354.0000000000003 442.06147584281797,422.4040286651349 373.65744717768337,234.46550450795354 561.5959713348648,166.06147584281896 629.9999999999993,354.00000000000034 "/>
<line stroke="rgba(0,0,0,1)" stroke-width="2px" x1="629.9999999999993" x2="442.06147584281797" y1="354.0000000000003" y2="422.4040286651349"/>
<line stroke="rgba(0,0,0,1)" stroke-width="2px" x1="442.06147584281797" x2="373.65744717768337" y1="422.4040286651349" y2="234.46550450795354"/>
<line stroke="rgba(0,0,0,1)" stroke-width="2px" x1="373.65744717768337" x2="561.5959713348648" y1="234.46550450795354" y2="166.06147584281896"/>
<line stroke="rgba(0,0,0,1)" stroke-width="2px" x1="561.5959713348648" x2="629.9999999999993" y1="166.06147584281896" y2="354.00000000000034"/>
<polygon fill="rgba(230,25,75,0.5185185185185186)" points="629.9999999999993,354.00000000000034 433.0384493975579,388.72963553338735 398.3088138641708,191.76808493094592 595.2703644666122,157.03844939755885 629.9999999999993,354.0000000000003 "/>
<line stroke="rgba(0,0,0,1)" stroke-width="2px" x1="629.9999999999993" x2="433.0384493975579" y1="354.00000000000034" y2="388.72963553338735"/>
<line stroke="rgba(0,0,0,1)" stroke-width="2px" x1="433.0384493975579" x2="398.3088138641708" y1="388.72963553338735" y2="191.76808493094592"/>
<line stroke="rgba(0,0,0,1)" stroke-width="2px" x1="398.3088138641708" x2="595.2703644666122" y1="191.76808493094592" y2="157.03844939755885"/>
<line stroke="rgba(0,0,0,1)" stroke-width="2px" x1="595.2703644666122" x2="629.9999999999993" y1="157.03844939755885" y2="354.0000000000003"/>
<polygon fill="rgba(255,255,255,0.5)" points="629.9999999999993,354.0000000000003 429.9999999999993,354.0000000000013 429.9999999999982,154.00000000000136 629.9999999999982,154.00000000000023 629.9999999999992,354.0000000000002 "/>
<line stroke="rgba(0,0,0,1)" stroke-width="2px" x1="629.9999999999993" x2="429.9999999999993" y1="354.0000000000003" y2="354.0000000000013"/>
<line stroke="rgba(0,0,0,1)" stroke-width="2px" x1="429.9999999999993" x2="429.9999999999982" y1="354.0000000000013" y2="154.00000000000136"/>
<line stroke="rgba(0,0,0,1)" stroke-width="2px" x1="429.9999999999982" x2="629.9999999999982" y1="154.00000000000136" y2="154.00000000000023"/>
<line stroke="rgba(0,0,0,1)" stroke-width="2px" x1="629.9999999999982" x2="629.9999999999992" y1="154.00000000000023" y2="354.0000000000002"/>
<polygon fill="rgba(230,25,75,0.4814814814814815)" points="629.9999999999992,354.0000000000002 433.03844939755743,319.2703644666152 467.76808493094245,122.30881386417343 664.7296355333842,157.03844939755845 629.9999999999992,354.0000000000003 "/>
<line stroke="rgba(0,0,0,1)" stroke-width="2px" x1="629.9999999999992" x2="433.03844939755743" y1="354.0000000000002" y2="319.2703644666152"/>
<line stroke="rgba(0,0,0,1)" stroke-width="2px" x1="433.03844939755743" x2="467.76808493094245" y1="319.2703644666152" y2="122.30881386417343"/>
<line stroke="rgba(0,0,0,1)" stroke-width="2px" x1="467.76808493094245" x2="664.7296355333842" y1="122.30881386417343" y2="157.03844939755845"/>
<line stroke="rgba(0,0,0,1)" stroke-width="2px" x1="664.7296355333842" x2="629.9999999999992" y1="157.03844939755845" y2="354.0000000000003"/>
<polygon fill="rgba(255,255,255,0.4629629629629629)" points="629.9999999999992,354.0000000000003 442.0614758428172,285.59597133486756 510.46550450794984,97.65744717768553 698.4040286651319,166.06147584281825 629.9999999999992,354.00000000000034 "/>
<line stroke="rgba(0,0,0,1)" stroke-width="2px" x1="629.9999999999992" x2="442.0614758428172" y1="354.0000000000003" y2="285.59597133486756"/>
<line stroke="rgba(0,0,0,1)" stroke-width="2px" x1="442.0614758428172" x2="510.46550450794984" y1="285.59597133486756" y2="97.65744717768553"/>
<line stroke="rgba(0,0,0,1)" stroke-width="2px" x1="510.46550450794984" x2="698.4040286651319" y1="97.65744717768553" y2="166.06147584281825"/>
<line stroke="rgba(0,0,0,1)" stroke-width="2px" x1="698.4040286651319" x2="629.9999999999992" y1="166.06147584281825" y2="354.00000000000034"/>
<polygon fill="rgba(230,25,75,0.4444444444444444)" points="629.9999999999992,354.00000000000034 456.7949192431109,254.0000000000013 556.7949192431099,80.79491924311299 729.9999999999982,180.794919243112 629.9999999999992,354.0000000000003 "/>
<line stroke="rgba(0,0,0,1)" stroke-width="2px" x1="629.9999999999992" x2="456.7949192431109" y1="354.00000000000034" y2="254.0000000000013"/>
<line stroke="rgba(0,0,0,1)" stroke-width="2px" x1="456.7949192431109" x2="556.7949192431099" y1="254.0000000000013" y2="80.79491924311299"/>
<line stroke="rgba(0,0,0,1)" stroke-width="2px" x1="556.7949192431099" x2="729.9999999999982" y1="80.79491924311299" y2="180.794919243112"/>
<line stroke="rgba(0,0,0,1)" stroke-width="2px" x1="729.9999999999982" x2="629.9999999999992" y1="180.794919243112" y2="354.0000000000003"/>
<polygon fill="rgba(255,255,255,0.42592592592592593)" points="629.9999999999992,354.0000000000003 476.7911113762028,225.44247806269328 605.3486333135098,72.23358943889696 758.5575219373062,200.79111137620393 629.9999999999992,354.00000000000034 "/>
<line stroke="rgba(0,0,0,1)" stroke-width="2px" x1="629.9999999999992" x2="476.7911113762028" y1="354.0000000000003" y2="225.44247806269328"/>
<line stroke="rgba(0,0,0,1)" stroke-width="2px" x1="476.7911113762028" x2="605.3486333135098" y1="225.44247806269328" y2="72.23358943889696"/>
<line stroke="rgba(0,0,0,1)" stroke-width="2px" x1="605.3486333135098" x2="758.5575219373062" y1="72.23358943889696" y2="200.79111137620393"/>
<line stroke="rgba(0,0,0,1)" stroke-width="2px" x1="758.5575219373062" x2="629.9999999999992" y1="200.79111137620393" y2="354.00000000000034"/>
<polygon fill="rgba(230,25,75,0.40740740740740744)" points="629.9999999999992,354.00000000000034 501.44247806269044,200.79111137620544 654.6513666864853,72.23358943889667 783.2088886237941,225.4424780626915 629.9999999999993,354.0000000000003 "/>
<line stroke="rgba(0,0,0,1)" stroke-width="2px" x1="629.9999999999992" x2="501.44247806269044" y1="354.00000000000034" y2="200.79111137620544"/>
<line stroke="rgba(0,0,0,1)" stroke-width="2px" x1="501.44247806269044" x2="654.6513666864853" y1="200.79111137620544" y2="72.23358943889667"/>
<line stroke="rgba(0,0,0,1)" stroke-width="2px" x1="654.6513666864853" x2="783.2088886237941" y1="72.23358943889667" y2="225.4424780626915"/>
<line stroke="rgba(0,0,0,1)" stroke-width="2px" x1="783.2088886237941" x2="629.9999999999993" y1="225.4424780626915" y2="354.0000000000003"/>
<polygon fill="rgba(255,255,255,0.3888888888888888)" points="629.9999999999993,354.0000000000003 529.9999999999982,180.7949192431132 703.2050807568853,80.79491924311208 803.2050807568863,253.99999999999918 629.9999999999992,354.0000000000003 "/>
<line stroke="rgba(0,0,0,1)" stroke-width="2px" x1="629.9999999999993" x2="529.9999999999982" y1="354.0000000000003" y2="180.7949192431132"/>
<line stroke="rgba(0,0,0,1)" stroke-width="2px" x1="529.9999999999982" x2="703.2050807568853" y1="180.7949192431132" y2="80.79491924311208"/>
<line stroke="rgba(0,0,0,1)" stroke-width="2px" x1="703.2050807568853" x2="803.2050807568863" y1="80.79491924311208" y2="253.99999999999918"/>
<line stroke="rgba(0,0,0,1)" stroke-width="2px" x1="803.2050807568863" x2="629.9999999999992" y1="253.99999999999918" y2="354.0000000000003"/>
<polygon fill="rgba(230,25,75,0.3703703703703703)" points="629.9999999999992,354.0000000000003 561.5959713348643,166.06147584281905 749.5344954920455,97.6574471776841 817.9385241571805,285.59597133486534 629.9999999999993,354.00000000000034 "/>
<line stroke="rgba(0,0,0,1)" stroke-width="2px" x1="629.9999999999992" x2="561.5959713348643" y1="354.0000000000003" y2="166.06147584281905"/>
<line stroke="rgba(0,0,0,1)" stroke-width="2px" x1="561.5959713348643" x2="749.5344954920455" y1="166.06147584281905" y2="97.6574471776841"/>
<line stroke="rgba(0,0,0,1)" stroke-width="2px" x1="749.5344954920455" x2="817.9385241571805" y1="97.6574471776841" y2="285.59597133486534"/>
<line stroke="rgba(0,0,0,1)" stroke-width="2px" x1="817.9385241571805" x2="629.9999999999993" y1="285.59597133486534" y2="354.00000000000034"/>
<polygon fill="rgba(255,255,255,0.35185185185185186)" points="629.9999999999993,354.00000000000034 595.2703644666119,157.03844939755896 792.2319150690532,122.30881386417161 826.9615506024406,319.270364466613 629.9999999999993,354.0000000000004 "/>
<line stroke="rgba(0,0,0,1)" stroke-width="2px" x1="629.9999999999993" x2="595.2703644666119" y1="354.00000000000034" y2="157.03844939755896"/>
<line stroke="rgba(0,0,0,1)" stroke-width="2px" x1="595.2703644666119" x2="792.2319150690532" y1="157.03844939755896" y2="122.30881386417161"/>
<line stroke="rgba(0,0,0,1)" stroke-width="2px" x1="792.2319150690532" x2="826.9615506024406" y1="122.30881386417161" y2="319.270364466613"/>
<line stroke="rgba(0,0,0,1)" stroke-width="2px" x1="826.9615506024406" x2="629.9999999999993" y1="319.270364466613" y2="354.0000000000004"/>
</svg>